<?xml version="1.0" encoding="utf-8"?>
<!-- Generator: Adobe Illustrator 24.1.2, SVG Export Plug-In . SVG Version: 6.00 Build 0)  -->
<svg version="1.1" id="Capa_1" xmlns="http://www.w3.org/2000/svg" xmlns:xlink="http://www.w3.org/1999/xlink" x="0px" y="0px"
	 viewBox="0 0 498 683" style="enable-background:new 0 0 498 683;" xml:space="preserve">
<style type="text/css">
	.st0{fill:#3D120E;}
	.st1{fill:none;stroke:#FFFFFF;stroke-width:14;stroke-miterlimit:10;}
	.st2{fill:url(#SVGID_1_);}
	.st3{fill:none;}
	.st4{fill:#AF5912;stroke:#7D451B;stroke-width:0.5;stroke-miterlimit:10;}
	.st5{fill:none;stroke:#FFFFFF;stroke-width:0.5;stroke-linecap:round;stroke-linejoin:round;}
	.st6{fill:#FFD986;}
	.st7{fill:#FFFFFF;stroke:#7D451B;stroke-width:7;stroke-miterlimit:10;}
	.st8{fill:#E0A657;}
	.st9{fill:#582403;}
	.st10{fill:none;stroke:#7D451B;stroke-width:3;stroke-miterlimit:10;}
	.st11{fill:none;stroke:#582403;stroke-width:3;stroke-miterlimit:10;}
</style>
<g>
	<g>
		<path class="st0" d="M71.18,672.63c-30.75,0-55.76-25.01-55.76-55.76V67.77c0-30.75,25.01-55.76,55.76-55.76h359.48
			c30.75,0,55.76,25.01,55.76,55.76v549.1c0,30.75-25.01,55.76-55.76,55.76H71.18z"/>
		<path d="M430.66,14.51c29.37,0,53.26,23.89,53.26,53.26v549.1c0,29.37-23.89,53.26-53.26,53.26H71.18
			c-29.37,0-53.26-23.89-53.26-53.26V67.77c0-29.37,23.89-53.26,53.26-53.26H430.66 M430.66,9.51H71.18
			C39,9.51,12.92,35.59,12.92,67.77v549.1c0,32.18,26.08,58.26,58.26,58.26h359.48c32.18,0,58.26-26.08,58.26-58.26V67.77
			C488.92,35.59,462.84,9.51,430.66,9.51L430.66,9.51z"/>
	</g>
	<g>
		<circle class="st1" cx="249.92" cy="345.5" r="130"/>
		<radialGradient id="SVGID_1_" cx="250.9199" cy="344.5012" r="125" gradientUnits="userSpaceOnUse">
			<stop  offset="0" style="stop-color:#FF931E"/>
			<stop  offset="1" style="stop-color:#DF7B00"/>
		</radialGradient>
		<circle class="st2" cx="250.92" cy="344.5" r="125"/>
		<g>
			<path class="st3" d="M274.04,291.13c0.35,0.83,0.68,1.67,0.99,2.52l25.88-13.54c-13.33-10.79-29.99-16.88-47.1-17.25
				c-0.55-0.01-1.1-0.02-1.66-0.02c-1.73,0-3.49,0.06-5.24,0.18c5.76,2.68,10.96,6.33,15.48,10.84
				C267.39,278.85,271.3,284.66,274.04,291.13z"/>
			<path class="st3" d="M303.45,283.05l-26.99,14.13c-0.07,0.04-0.15,0.07-0.25,0.1c0.09,0.3,0.17,0.6,0.25,0.91
				c0.16,0.61,0.31,1.22,0.46,1.83c0.14,0.61,0.27,1.23,0.39,1.84c0.08,0.42,0.16,0.85,0.23,1.28c0.51,2.98,0.76,6.02,0.77,9.08
				h46.15c-4.4-11.22-11.5-21.43-20.52-29.53C303.79,282.83,303.63,282.95,303.45,283.05z"/>
			<path class="st3" d="M242.11,385.56c0.26-0.16,0.53-0.31,0.8-0.46c0.18-0.1,0.36-0.19,0.54-0.28c0.01,0,0.01-0.01,0.02-0.01
				c0.61-0.31,1.23-0.59,1.87-0.84c0.02-0.01,0.04-0.01,0.06-0.02c0.4-0.16,0.81-0.3,1.22-0.44c0.21-0.07,0.41-0.13,0.62-0.2
				c1.05-0.31,2.14-0.56,3.27-0.75c0.03,0,0.05-0.01,0.08-0.01c0.71-0.11,1.43-0.2,2.17-0.27c0.25-0.02,0.5-0.04,0.76-0.05
				c0.72-0.04,1.45-0.07,2.19-0.06c0.6,0,1.22,0.02,1.84,0.05c0.62,0.03,1.25,0.08,1.89,0.14v-28.9c-0.53,0.46-1.08,0.91-1.63,1.35
				c-3.86,3.08-8.11,5.61-12.67,7.54c-6.7,2.83-13.82,4.27-21.15,4.27c-0.35,0-0.7,0-1.06-0.01c-0.36-0.01-0.71-0.02-1.07-0.03
				l-1.53,44.67c2.96,1.34,6.04,2.5,9.15,3.45c-0.04-1.25-0.06-3.89,0.35-7.15c0.04-0.34,0.09-0.68,0.14-1.03
				c0.06-0.43,0.13-0.87,0.21-1.32s0.17-0.9,0.26-1.36C232.2,395.4,236.24,389.07,242.11,385.56z"/>
			<path class="st3" d="M318.81,349.08c-0.21,0.27-0.4,0.56-0.57,0.84c-0.34,0.57-0.62,1.17-0.82,1.79
				c-0.07,0.22-0.13,0.44-0.19,0.66c-0.93,3.77,0.54,7.96,2.41,11.39c0.52,0.96,1.08,1.86,1.62,2.68c0.04,0.06,0.08,0.11,0.11,0.17
				c0.08,0.12,0.16,0.24,0.24,0.35c0.03,0.04,0.06,0.08,0.08,0.12c0.13,0.18,0.25,0.36,0.37,0.53c0.03,0.05,0.07,0.09,0.1,0.14
				c0.69,0.96,1.31,1.74,1.76,2.27c0.94-2.26,1.76-4.56,2.47-6.89c0.55-1.81,1.04-3.64,1.46-5.48c0.38-1.69,0.71-3.39,0.98-5.1
				c0.09-0.57,0.17-1.14,0.25-1.72c0.08-0.57,0.15-1.15,0.21-1.72c0.22-2.01,0.37-4.04,0.44-6.09
				C324.49,344.39,320.83,346.42,318.81,349.08z"/>
			<path class="st3" d="M174.54,341.43c0.07,5.66,0.74,11.22,1.99,16.62c0.04,0.18,0.08,0.36,0.13,0.54
				c0.11,0.45,0.22,0.91,0.34,1.36c0.03,0.13,0.07,0.26,0.1,0.39c0.3,1.13,0.62,2.25,0.97,3.36c0.1,0.32,0.2,0.64,0.31,0.96
				c0.18,0.54,0.36,1.08,0.55,1.62c0.38,1.07,0.78,2.14,1.21,3.19c0.21,0.53,0.43,1.05,0.66,1.58c0.17,0.39,0.34,0.78,0.51,1.17
				c0.42,0.94,0.86,1.87,1.33,2.8c0,0.01,0.01,0.02,0.01,0.03c0.75,1.49,1.54,2.96,2.38,4.41c0.2,0.34,0.4,0.67,0.6,1.01
				c0.14,0.24,0.29,0.48,0.44,0.71c3.06,4.94,6.69,9.57,10.87,13.8c-0.93-3.28-1.76-7-2.13-10.73c0-0.01,0-0.02,0-0.03
				c-0.08-0.81-0.14-1.63-0.17-2.44c-0.01-0.3-0.02-0.6-0.03-0.89c-0.03-2.18,0.13-4.33,0.56-6.35c0.09-0.42,0.19-0.84,0.31-1.26
				c0.08-0.28,0.16-0.55,0.25-0.82c0.09-0.27,0.18-0.54,0.28-0.8c0.1-0.26,0.2-0.52,0.32-0.78c0.5-1.16,1.13-2.25,1.89-3.25
				c1.57-2.05,3.65-3.6,6.19-4.61c-0.54-0.21-1.06-0.42-1.57-0.63c-6.47-2.74-12.28-6.65-17.27-11.64
				c-3.67-3.67-6.76-7.79-9.23-12.3c-0.57-1.04-1.11-2.1-1.61-3.18c-0.12,1.75-0.18,3.51-0.18,5.24
				C174.54,340.79,174.54,341.11,174.54,341.43z"/>
			<path class="st3" d="M257.68,417.89c0.52-0.04,1.05-0.08,1.57-0.13c0.78-0.07,1.56-0.15,2.34-0.25c0.32-0.04,0.65-0.08,0.97-0.12
				c4.86-0.65,9.64-1.77,14.3-3.34c-5.92-3.16-11.34-4.77-16.19-4.82c-0.18,0-0.37,0-0.55,0c-1.27,0.02-2.51,0.15-3.7,0.39
				c-0.68,0.14-1.35,0.31-2,0.52c-0.92,0.29-1.77,0.65-2.56,1.04c-0.01,0.01-0.03,0.01-0.04,0.02c-0.38,0.19-0.75,0.4-1.11,0.61
				c-0.21,0.12-0.41,0.25-0.6,0.37c-0.98,0.64-1.86,1.34-2.63,2.06c-0.31,0.29-0.6,0.58-0.88,0.87c-0.18,0.19-0.36,0.38-0.53,0.57
				c-0.15,0.17-0.29,0.33-0.42,0.49c-0.15,0.18-0.29,0.35-0.42,0.52c-0.27,0.34-0.52,0.68-0.74,1.01c2.53,0.25,5.11,0.38,7.66,0.38
				C254.01,418.09,255.85,418.02,257.68,417.89z"/>
			<path class="st3" d="M216.6,366.12c-1.48-0.2-2.95-0.46-4.39-0.78c-5.07,0.11-8.77,1.63-11,4.54c-0.29,0.38-0.56,0.78-0.8,1.2
				c-0.24,0.42-0.46,0.86-0.65,1.31c-0.97,2.26-1.36,4.91-1.38,7.67c0,0.74,0.02,1.48,0.06,2.23c0.12,2.05,0.42,4.13,0.81,6.12
				c0.07,0.36,0.14,0.72,0.22,1.08c0.08,0.36,0.15,0.71,0.24,1.06c0.08,0.35,0.16,0.69,0.25,1.03c0.84,3.4,1.85,6.32,2.52,8.13
				c0.07,0.18,0.13,0.35,0.19,0.51c4.3,3.57,8.98,6.67,13.93,9.23l1.48-43.15C217.58,366.25,217.09,366.19,216.6,366.12z"/>
			<path class="st3" d="M292.33,343.86c0.82-2.05,1.91-3.96,3.26-5.72c0.23-0.29,0.46-0.58,0.7-0.87c0.48-0.57,0.99-1.13,1.53-1.67
				c5.79-5.8,14.97-9.72,27.43-11.72c0.58-0.09,1.17-0.18,1.76-0.27c0.3-0.04,0.6-0.08,0.9-0.12c-0.42-1.89-0.92-3.79-1.49-5.65
				c-0.19-0.62-0.39-1.24-0.59-1.85h-47.58c-0.02,0-0.04,0-0.05,0c-0.08,1.13-0.19,2.25-0.33,3.37c-0.04,0.3-0.08,0.6-0.13,0.91
				c-0.67,4.53-1.9,8.94-3.69,13.17c-1.94,4.58-4.47,8.84-7.56,12.71c-0.71,0.89-1.46,1.76-2.23,2.61l26.25,4.33
				c0.09-3.11,0.64-6.03,1.63-8.7C292.2,344.21,292.26,344.03,292.33,343.86z"/>
			<path class="st3" d="M307.84,394.19c-0.24-0.29-6.02-7.31-10.88-16.96c-0.72-1.43-1.38-2.84-1.98-4.23
				c-1.8-4.18-3.08-8.19-3.79-11.96c-0.26-1.39-0.46-2.77-0.57-4.1l-27.41-4.52v30.49c0.66,0.12,1.34,0.25,2.02,0.4
				c0.68,0.15,1.37,0.31,2.08,0.49c0.35,0.09,0.7,0.18,1.06,0.28c0.71,0.19,1.43,0.4,2.16,0.63c1.09,0.34,2.21,0.71,3.34,1.11
				c4.53,1.61,9.39,3.76,14.55,6.42c1.29,0.67,2.6,1.37,3.93,2.1c3.1,1.71,6.3,3.59,9.59,5.65c0.79-0.66,1.57-1.34,2.34-2.04
				c0.26-0.23,0.51-0.47,0.76-0.7c1.01-0.94,2-1.91,2.96-2.9C307.93,394.29,307.88,394.24,307.84,394.19z"/>
			<path class="st3" d="M299.78,374.4c0.4,0.83,0.81,1.64,1.23,2.43c2.77,5.27,5.76,9.65,7.69,12.29c0.29,0.4,0.56,0.75,0.79,1.07
				c0.08,0.1,0.16,0.21,0.23,0.3c0.15,0.19,0.28,0.36,0.4,0.52c0.18,0.23,0.32,0.41,0.43,0.55c4.73-5.4,8.68-11.4,11.74-17.85
				c-0.16-0.08-0.3-0.17-0.43-0.29c-0.04-0.04-0.08-0.08-0.12-0.12c-0.46-0.5-11.3-12.42-7.92-22.75c0.17-0.51,0.37-1.01,0.6-1.5
				c0.23-0.48,0.49-0.96,0.79-1.41c2.54-3.95,7.42-6.8,14.55-8.49c-0.03-1.83-0.13-3.67-0.29-5.49c-0.05-0.61-0.11-1.22-0.18-1.82
				c-0.01-0.11-0.03-0.22-0.04-0.34c-0.11-0.94-0.23-1.87-0.37-2.81c-0.08-0.49-0.16-0.98-0.24-1.47
				c-17.92,2.35-28.95,8.43-32.81,18.06C292.79,352.89,294.11,362.69,299.78,374.4z"/>
			<path class="st3" d="M283.27,393.89c-1.12-0.54-2.23-1.06-3.31-1.55c-0.73-0.33-1.44-0.64-2.15-0.94
				c-4.97-2.1-9.56-3.61-13.75-4.49c-1.12-0.24-2.2-0.43-3.26-0.58c-0.58-0.08-1.15-0.15-1.72-0.21c-0.1-0.01-0.21-0.02-0.31-0.03
				c-0.37-0.03-0.73-0.06-1.09-0.08c-5.4-0.33-9.97,0.59-13.61,2.77c-4.69,2.8-7.92,7.64-9.61,14.39c-0.05,0.22-0.11,0.44-0.16,0.66
				c-0.05,0.23-0.1,0.46-0.15,0.69c-0.08,0.36-0.15,0.71-0.21,1.07c-0.06,0.35-0.12,0.7-0.18,1.04c-0.05,0.34-0.1,0.68-0.15,1.01
				c-0.05,0.4-0.1,0.8-0.14,1.18c-0.39,3.7-0.2,6.36-0.2,6.4c0.01,0.18,0,0.36-0.04,0.53c1.9,0.48,3.83,0.88,5.76,1.22
				c0.45,0.08,0.9,0.15,1.35,0.22c1.08-1.87,3.03-4.64,6.09-7.03c0.15-0.12,0.31-0.24,0.47-0.35c1.75-1.29,3.84-2.44,6.32-3.24
				c0.63-0.2,1.26-0.37,1.91-0.52c1.68-0.38,3.41-0.58,5.2-0.59c6.07-0.03,12.82,2.07,20.15,6.29c0.33,0.19,0.67,0.39,1,0.59
				c3.46-1.42,6.81-3.08,10.03-4.99c0.63-0.37,1.25-0.75,1.86-1.14c1.85-1.16,3.65-2.41,5.4-3.72c-5.13-3.17-10-5.89-14.6-8.15
				C283.88,394.18,283.58,394.03,283.27,393.89z"/>
			<path class="st4" d="M328.06,372.53c4.3-10.16,6.47-20.95,6.47-32.07c0-11.12-2.18-21.91-6.47-32.07
				c-4.15-9.81-10.09-18.62-17.65-26.18c-7.56-7.56-16.37-13.5-26.18-17.65c-10.16-4.3-20.95-6.47-32.07-6.47
				c-5.25,0-10.49,0.49-15.57,1.47c-3.95,0.76-7.89,1.82-11.7,3.16c3.93,0.07,7.82,0.6,11.6,1.59c10.42,2.72,19.84,8.91,26.53,17.44
				c3.35,4.27,5.96,9.02,7.75,14.11c1.86,5.27,2.8,10.8,2.8,16.43c0,27.34-22.24,49.58-49.58,49.58c-5.63,0-11.16-0.94-16.43-2.8
				c-5.09-1.79-9.84-4.4-14.11-7.75c-8.53-6.69-14.73-16.11-17.44-26.53c-0.98-3.77-1.52-7.67-1.59-11.6
				c-1.34,3.81-2.4,7.75-3.16,11.7c-0.97,5.09-1.47,10.33-1.47,15.57c0,11.12,2.18,21.91,6.47,32.07
				c4.15,9.81,10.09,18.62,17.65,26.18c7.56,7.56,16.37,13.5,26.18,17.65c10.16,4.3,20.95,6.47,32.07,6.47
				c11.12,0,21.91-2.18,32.07-6.47c9.81-4.15,18.62-10.09,26.18-17.65C317.97,391.15,323.91,382.34,328.06,372.53z M197.02,395.25
				c-2.36-2.37-4.54-4.87-6.56-7.49c-1.21-1.57-2.35-3.18-3.44-4.84c-0.34-0.52-0.67-1.04-1-1.57c-2.12-3.43-3.98-7.02-5.56-10.77
				c-1.13-2.69-2.11-5.42-2.93-8.19c-0.25-0.85-0.48-1.7-0.71-2.55c-1.54-5.98-2.36-12.13-2.43-18.4c0-0.33-0.01-0.65-0.01-0.98
				c0-1.82,0.07-3.68,0.2-5.52l0.02-0.27l0.11,0.25c2.69,5.84,6.36,11.12,10.93,15.68c4.98,4.98,10.77,8.88,17.23,11.61
				c0.14,0.06,0.28,0.12,0.42,0.18c0.31,0.13,0.64,0.26,0.96,0.39c0.12,0.05,0.23,0.09,0.35,0.14l0.17,0.07l-0.17,0.07
				c-2.27,0.87-4.18,2.18-5.69,3.9c-0.1,0.11-0.2,0.23-0.3,0.35c-0.1,0.13-0.21,0.25-0.3,0.38c-0.68,0.89-1.25,1.86-1.72,2.88
				c-0.3,0.66-0.56,1.34-0.79,2.04c-2.15,6.78-0.7,15.4,1.21,22.17c0.04,0.14,0.08,0.27,0.12,0.41l0.08,0.26L197.02,395.25z
				 M218.22,366.24l-1.49,43.43l-0.1-0.05c-4.1-2.11-8.02-4.6-11.69-7.41c-0.52-0.4-1.04-0.81-1.56-1.23
				c-0.27-0.22-0.55-0.44-0.82-0.67l-0.01-0.01l-0.01-0.02c-0.06-0.16-0.12-0.33-0.19-0.51c-0.06-0.17-0.13-0.35-0.2-0.54
				c-1.89-5.21-5.67-17.45-2.98-25.7c0.34-1.05,0.79-2.04,1.36-2.94c0.17-0.27,0.36-0.54,0.56-0.8c2.26-2.94,6-4.49,11.12-4.59
				l0.01,0h0l0.01,0c0.73,0.16,1.46,0.31,2.2,0.44c0.31,0.05,0.62,0.11,0.93,0.16c0.93,0.15,1.86,0.27,2.79,0.37l0.06,0.01
				L218.22,366.24z M329.88,342.94c-0.13,4.07-0.57,8.08-1.32,12.04c-0.17,0.91-0.36,1.82-0.57,2.72c-0.13,0.57-0.26,1.13-0.41,1.7
				c-0.14,0.56-0.29,1.13-0.44,1.69c-0.08,0.28-0.16,0.56-0.24,0.84c-0.16,0.56-0.33,1.12-0.5,1.67c-0.7,2.22-1.49,4.42-2.39,6.59
				l-0.04,0.11l0,0l-0.07-0.09c-0.57-0.68-1.47-1.8-2.43-3.22c-0.11-0.17-0.23-0.34-0.34-0.51c-0.52-0.79-1.05-1.65-1.55-2.57
				c-0.11-0.2-0.22-0.41-0.33-0.62c-0.16-0.31-0.32-0.63-0.48-0.96c-0.05-0.11-0.1-0.22-0.15-0.33c-0.25-0.55-0.48-1.1-0.69-1.67
				c-0.67-1.81-1.11-3.72-1.1-5.58c0-0.52,0.04-1.05,0.12-1.56c0.06-0.39,0.14-0.77,0.25-1.15c0.04-0.13,0.07-0.25,0.11-0.38
				c0.25-0.76,0.6-1.48,1.05-2.16c0.15-0.23,0.31-0.45,0.48-0.67c0.26-0.33,0.54-0.65,0.85-0.95c2.16-2.16,5.55-3.83,10.12-5.01
				l0.09-0.02L329.88,342.94z M303.77,282.65c0.04-0.04,0.08-0.07,0.11-0.11l0.05-0.05l0.05,0.05c9.09,8.14,16.23,18.42,20.65,29.72
				l0.04,0.1h-46.49v-0.07c0-5.12-0.71-10.18-2.11-15.03l-0.02-0.07l0.07-0.02c0.04-0.01,0.07-0.02,0.1-0.04
				c0.03-0.01,0.06-0.02,0.09-0.03c0.03-0.01,0.07-0.03,0.1-0.05l26.99-14.13C303.53,282.85,303.65,282.76,303.77,282.65z
				 M264.98,276.85c-0.86-0.99-1.75-1.95-2.69-2.88c-1.14-1.14-2.33-2.23-3.56-3.26c-0.46-0.39-0.93-0.76-1.4-1.13
				c-3.31-2.59-6.9-4.78-10.73-6.54l-0.25-0.11l0.27-0.02c1.84-0.13,3.7-0.2,5.52-0.2c2.55,0,5.08,0.12,7.6,0.37
				c0.56,0.05,1.12,0.11,1.67,0.18c0.28,0.03,0.56,0.07,0.83,0.1c0.83,0.11,1.66,0.23,2.49,0.37c0.55,0.09,1.1,0.19,1.65,0.29
				c1.55,0.29,3.08,0.62,4.61,1c2.54,0.64,5.06,1.4,7.54,2.3c3.57,1.29,7.04,2.84,10.37,4.64c0.48,0.26,0.95,0.52,1.42,0.78
				c1.41,0.8,2.8,1.64,4.16,2.53c0.91,0.59,1.8,1.2,2.69,1.83c1.33,0.95,2.63,1.94,3.9,2.97l0.08,0.07l-26.21,13.72l-0.03-0.08
				c-0.08-0.22-0.16-0.44-0.24-0.65c-0.25-0.65-0.51-1.3-0.78-1.94c-1.8-4.26-4.12-8.23-6.91-11.87
				C266.35,278.47,265.68,277.65,264.98,276.85z M264.06,348.76c4.14-4.54,7.46-9.72,9.85-15.38c2.35-5.56,3.74-11.44,4.14-17.47
				l0-0.07l0.09,0.01c0.03,0,0.06,0,0.09,0h47.68l0.02,0.05c0.31,0.94,0.61,1.88,0.89,2.84c0.46,1.59,0.88,3.2,1.23,4.8l0.02,0.07
				l-0.08,0.01c-2.1,0.28-4.12,0.61-6.04,0.99c-0.55,0.11-1.09,0.22-1.63,0.34c-0.54,0.12-1.07,0.24-1.59,0.36
				c-0.42,0.1-0.84,0.21-1.26,0.31c-12.45,3.22-20.64,8.91-24.44,16.96c-0.13,0.27-0.25,0.54-0.37,0.81
				c-0.07,0.17-0.14,0.34-0.21,0.51c-1.13,2.82-1.74,5.93-1.83,9.26l0,0.08l-26.66-4.4L264.06,348.76z M229.61,414.8l0,0.1h0
				l-0.09-0.03c-2.43-0.74-4.83-1.6-7.17-2.58c-0.33-0.14-0.67-0.28-1-0.42c-0.38-0.16-0.76-0.33-1.13-0.5l-0.04-0.02l0-0.05
				l1.54-44.86l0.07,0c0.74,0.03,1.48,0.04,2.2,0.04c7.32,0,14.41-1.43,21.1-4.26c5.25-2.22,10.09-5.24,14.38-8.96l0.12-0.1v29.36
				l-0.08-0.01c-0.51-0.05-1.02-0.09-1.52-0.12c-5.97-0.38-11.13,0.63-15.36,3.03c-0.15,0.08-0.29,0.17-0.44,0.26
				c-5.84,3.5-9.85,9.79-11.62,18.2C229.52,408.86,229.55,413.18,229.61,414.8z M277.07,414.14c-1.13,0.38-2.26,0.74-3.4,1.07
				c-0.38,0.11-0.76,0.22-1.14,0.32c-0.76,0.21-1.53,0.4-2.3,0.59c-0.51,0.12-1.03,0.24-1.54,0.35c-2.83,0.62-5.7,1.07-8.59,1.37
				c-0.26,0.03-0.53,0.05-0.79,0.08c-0.53,0.05-1.05,0.09-1.58,0.13c-0.53,0.04-1.06,0.07-1.59,0.1c-1.32,0.07-2.65,0.1-3.98,0.1
				c-2.59,0-5.22-0.13-7.79-0.39l-0.12-0.01l0.07-0.1c0.11-0.16,0.23-0.33,0.35-0.5c1.24-1.7,3.04-3.67,5.5-5.24
				c0.25-0.16,0.5-0.31,0.76-0.46c0.39-0.22,0.8-0.44,1.22-0.64c0.7-0.33,1.45-0.63,2.24-0.88c6.35-2.03,13.98-0.68,22.69,4
				l0.14,0.08L277.07,414.14z M298.95,402.54c-5.37,4.06-11.24,7.41-17.44,9.94l-0.03,0.01l-0.03-0.02
				c-10.72-6.41-20.2-8.35-28.18-5.77c-7.19,2.32-11.12,7.64-12.82,10.6l-0.02,0.04l-0.05-0.01c-1.81-0.28-3.64-0.62-5.44-1.03
				c-0.6-0.14-1.2-0.28-1.8-0.43l-0.07-0.02l0.02-0.07c0.05-0.18,0.06-0.37,0.05-0.56c0-0.05-0.35-4.97,0.87-10.73
				c1.59-7.5,4.95-12.83,9.98-15.83c5.04-3.01,11.8-3.65,20.09-1.89c2.4,0.51,4.94,1.22,7.6,2.13c1,0.34,2.01,0.71,3.05,1.11
				c7.24,2.78,15.34,6.93,24.21,12.41l0.09,0.05L298.95,402.54z M308.13,394.39c-1.94,2.01-4.01,3.95-6.16,5.74l-0.04,0.03
				l-0.04-0.03c-15.1-9.45-28.15-15.2-38.77-17.11l-0.06-0.01v-30.77l0.08,0.01l27.6,4.55l0,0.05c0.11,1.34,0.31,2.74,0.57,4.14
				c0.24,1.25,0.54,2.53,0.9,3.84c0.18,0.65,0.38,1.31,0.59,1.97c0.63,1.99,1.4,4.03,2.3,6.12c0.6,1.39,1.26,2.8,1.98,4.22
				c2.05,4.07,4.26,7.66,6.14,10.49c0.28,0.42,0.55,0.82,0.82,1.2c0.46,0.67,0.9,1.29,1.3,1.84c0.23,0.32,0.45,0.61,0.65,0.89
				c0.41,0.55,0.77,1.02,1.06,1.4c0.07,0.09,0.14,0.18,0.21,0.27c0.39,0.5,0.63,0.79,0.68,0.85c0.05,0.06,0.11,0.12,0.19,0.19
				l0.05,0.05L308.13,394.39z M308.24,388.72c-0.16-0.22-0.32-0.44-0.49-0.68c-0.28-0.39-0.57-0.81-0.88-1.26
				c-0.18-0.27-0.37-0.54-0.56-0.82c-0.06-0.09-0.13-0.19-0.19-0.29c-0.5-0.75-1.02-1.55-1.56-2.4c-1.61-2.55-3.33-5.55-4.91-8.82
				c-0.78-1.62-1.49-3.21-2.11-4.77c-0.37-0.94-0.72-1.86-1.03-2.77c-0.1-0.3-0.21-0.61-0.3-0.91c-0.68-2.11-1.2-4.15-1.55-6.12
				c-0.28-1.56-0.45-3.07-0.52-4.53c-0.02-0.49-0.03-0.97-0.03-1.44c0-0.32,0.01-0.63,0.02-0.94c0.03-0.93,0.12-1.85,0.24-2.73
				c0.26-1.77,0.7-3.45,1.33-5.03c3.88-9.69,14.98-15.8,32.98-18.15l0.07-0.01l0.01,0.07c0.09,0.5,0.17,0.99,0.24,1.49
				c0.54,3.49,0.84,7.04,0.89,10.58l0,0.06l-0.05,0.01c-0.27,0.06-0.54,0.13-0.81,0.2c-7.75,1.97-12.68,5.37-14.7,10.12
				c-0.14,0.33-0.26,0.66-0.38,1c-0.05,0.16-0.1,0.32-0.15,0.48c-0.06,0.2-0.11,0.39-0.15,0.59c-1.24,5.32,1.04,10.95,3.51,15.12
				c0.37,0.62,0.73,1.2,1.1,1.75c1.73,2.61,3.31,4.37,3.56,4.65c0.01,0.01,0.02,0.02,0.02,0.02c0.08,0.09,0.17,0.16,0.26,0.23
				c0.1,0.07,0.2,0.13,0.31,0.18l0.07,0.03l-0.03,0.06c-3.09,6.51-7.08,12.57-11.85,18.01l-0.05,0.06l-0.05-0.06
				c-0.29-0.37-0.94-1.18-1.8-2.36C308.55,389.14,308.4,388.94,308.24,388.72z"/>
			<path class="st3" d="M328.19,308.35c-4.16-9.83-10.11-18.65-17.68-26.23c-7.58-7.58-16.4-13.53-26.23-17.68
				c-10.17-4.3-20.98-6.49-32.12-6.49c-5.26,0-10.51,0.49-15.6,1.47c-4.09,0.78-8.16,1.89-12.09,3.29l-0.37,0.13l0.39,0
				c4.05,0.04,8.07,0.58,11.95,1.59c21.77,5.68,36.98,25.35,36.98,47.85c0,27.26-22.18,49.44-49.44,49.44
				c-22.5,0-42.17-15.2-47.85-36.98c-1.01-3.89-1.55-7.91-1.59-11.95l0-0.39l-0.13,0.37c-1.4,3.93-2.51,8-3.29,12.09
				c-0.97,5.09-1.47,10.34-1.47,15.6c0,11.14,2.18,21.95,6.49,32.12c4.16,9.83,10.11,18.65,17.68,26.23
				c7.58,7.58,16.4,13.53,26.23,17.68c10.17,4.3,20.98,6.49,32.12,6.49c11.14,0,21.95-2.18,32.12-6.49
				c9.83-4.16,18.65-10.11,26.23-17.68c7.58-7.58,13.53-16.4,17.68-26.23c4.3-10.17,6.49-20.98,6.49-32.12
				C334.68,329.33,332.49,318.52,328.19,308.35z M252.16,422.84c-11.12,0-21.91-2.18-32.07-6.47c-9.81-4.15-18.62-10.09-26.18-17.65
				c-7.56-7.56-13.5-16.37-17.65-26.18c-4.3-10.16-6.47-20.95-6.47-32.07c0-5.25,0.49-10.49,1.47-15.57
				c0.76-3.96,1.82-7.89,3.16-11.7c0.07,3.93,0.6,7.83,1.59,11.6c2.72,10.42,8.91,19.84,17.44,26.53c4.27,3.35,9.02,5.96,14.11,7.75
				c5.27,1.86,10.8,2.8,16.43,2.8c27.34,0,49.58-22.24,49.58-49.58c0-5.63-0.94-11.16-2.8-16.43c-1.79-5.09-4.4-9.84-7.75-14.11
				c-6.69-8.53-16.11-14.73-26.53-17.44c-3.77-0.98-7.67-1.52-11.6-1.59c3.81-1.34,7.75-2.4,11.7-3.16
				c5.09-0.97,10.33-1.47,15.57-1.47c11.12,0,21.91,2.18,32.07,6.47c9.81,4.15,18.62,10.09,26.18,17.65
				c7.56,7.56,13.5,16.37,17.65,26.18c4.3,10.16,6.47,20.95,6.47,32.07c0,11.12-2.18,21.91-6.47,32.07
				c-4.15,9.81-10.09,18.62-17.65,26.18c-7.56,7.56-16.37,13.5-26.18,17.65C274.07,420.67,263.28,422.84,252.16,422.84z"/>
			<line class="st5" x1="298.78" y1="402.49" x2="298.78" y2="402.49"/>
			<path class="st3" d="M319.67,347.88c-0.31,0.31-0.59,0.63-0.85,0.95c-0.17,0.22-0.33,0.44-0.48,0.67
				c-0.45,0.68-0.8,1.4-1.05,2.16c-0.04,0.13-0.08,0.25-0.11,0.38c-0.11,0.38-0.19,0.76-0.25,1.15c-0.08,0.52-0.12,1.04-0.12,1.56
				c-0.01,1.86,0.43,3.77,1.1,5.58c0.21,0.57,0.44,1.13,0.69,1.67c0.05,0.11,0.1,0.22,0.15,0.33c0.15,0.32,0.31,0.64,0.48,0.96
				c0.11,0.21,0.22,0.42,0.33,0.62c0.5,0.92,1.03,1.78,1.55,2.57c0.12,0.17,0.23,0.35,0.34,0.51c0.97,1.42,1.87,2.54,2.43,3.22
				l0.07,0.09l0,0l0.04-0.11c0.9-2.17,1.7-4.36,2.39-6.59c0.17-0.56,0.34-1.11,0.5-1.67c0.08-0.28,0.16-0.56,0.24-0.84
				c0.15-0.56,0.3-1.12,0.44-1.69c0.14-0.56,0.28-1.13,0.41-1.7c0.21-0.9,0.39-1.81,0.57-2.72c0.75-3.95,1.19-7.97,1.32-12.04
				l0-0.09l-0.09,0.02C325.22,344.05,321.84,345.72,319.67,347.88z M329.3,349.12c-0.06,0.58-0.13,1.15-0.21,1.72
				c-0.08,0.57-0.16,1.15-0.25,1.72c-0.27,1.71-0.59,3.41-0.98,5.1c-0.42,1.85-0.91,3.67-1.46,5.48c-0.71,2.33-1.54,4.63-2.47,6.89
				c-0.44-0.53-1.07-1.31-1.76-2.27c-0.03-0.05-0.07-0.09-0.1-0.14c-0.12-0.17-0.25-0.35-0.37-0.53c-0.03-0.04-0.06-0.08-0.08-0.12
				c-0.08-0.12-0.16-0.23-0.24-0.35c-0.04-0.06-0.08-0.11-0.11-0.17c-0.54-0.82-1.1-1.72-1.62-2.68c-1.87-3.44-3.34-7.63-2.41-11.39
				c0.05-0.22,0.12-0.44,0.19-0.66c0.2-0.62,0.48-1.22,0.82-1.79c0.17-0.29,0.36-0.57,0.57-0.84c2.02-2.66,5.67-4.68,10.92-6.04
				C329.67,345.07,329.52,347.1,329.3,349.12z"/>
			<path class="st3" d="M274.69,293.13c0.08,0.22,0.16,0.44,0.24,0.65l0.03,0.08l26.21-13.72l-0.08-0.07
				c-1.27-1.03-2.57-2.02-3.9-2.97c-0.88-0.63-1.78-1.24-2.69-1.83c-1.36-0.89-2.75-1.73-4.16-2.53c-0.47-0.27-0.94-0.53-1.42-0.78
				c-3.33-1.79-6.79-3.34-10.37-4.64c-2.48-0.9-4.99-1.66-7.54-2.3c-1.53-0.38-3.06-0.72-4.61-1c-0.55-0.1-1.1-0.2-1.65-0.29
				c-0.83-0.14-1.66-0.26-2.49-0.37c-0.28-0.04-0.56-0.07-0.83-0.1c-0.56-0.07-1.11-0.13-1.67-0.18c-2.51-0.24-5.05-0.37-7.6-0.37
				c-1.82,0-3.68,0.07-5.52,0.2l-0.27,0.02l0.25,0.11c3.83,1.76,7.42,3.95,10.73,6.54c0.47,0.37,0.94,0.75,1.4,1.13
				c1.23,1.03,2.41,2.12,3.56,3.26c0.93,0.93,1.83,1.9,2.69,2.88c0.7,0.8,1.37,1.63,2.01,2.47c2.8,3.64,5.11,7.61,6.91,11.87
				C274.18,291.82,274.44,292.47,274.69,293.13z M252.16,262.84c0.55,0,1.11,0.01,1.66,0.02c17.11,0.37,33.77,6.46,47.1,17.25
				l-25.88,13.54c-0.31-0.85-0.64-1.7-0.99-2.52c-2.74-6.47-6.65-12.28-11.64-17.27c-4.51-4.51-9.72-8.16-15.48-10.84
				C248.67,262.9,250.43,262.84,252.16,262.84z"/>
			<path class="st3" d="M310.55,391.76l0.05-0.06c4.77-5.44,8.76-11.5,11.85-18.01l0.03-0.06l-0.07-0.03
				c-0.11-0.05-0.21-0.11-0.31-0.18c-0.1-0.07-0.18-0.15-0.26-0.23c-0.01-0.01-0.01-0.01-0.02-0.02c-0.25-0.28-1.83-2.03-3.56-4.65
				c-0.36-0.55-0.73-1.13-1.1-1.75c-2.47-4.17-4.74-9.8-3.51-15.12c0.05-0.2,0.1-0.39,0.15-0.59c0.05-0.16,0.09-0.32,0.15-0.48
				c0.11-0.34,0.24-0.67,0.38-1c2.02-4.75,6.96-8.15,14.7-10.12c0.27-0.07,0.54-0.13,0.81-0.2l0.05-0.01l0-0.06
				c-0.06-3.54-0.36-7.1-0.89-10.58c-0.08-0.5-0.16-1-0.24-1.49l-0.01-0.07l-0.07,0.01c-18.01,2.35-29.11,8.46-32.98,18.15
				c-0.63,1.57-1.07,3.25-1.33,5.03c-0.13,0.89-0.21,1.8-0.24,2.73c-0.01,0.31-0.02,0.63-0.02,0.94c0,0.48,0.01,0.96,0.03,1.44
				c0.07,1.46,0.24,2.97,0.52,4.53c0.35,1.96,0.87,4.01,1.55,6.12c0.1,0.3,0.2,0.6,0.3,0.91c0.31,0.91,0.66,1.84,1.03,2.77
				c0.62,1.56,1.32,3.15,2.11,4.77c1.58,3.27,3.31,6.26,4.91,8.82c0.54,0.85,1.06,1.65,1.56,2.4c0.06,0.1,0.13,0.19,0.19,0.29
				c0.19,0.28,0.38,0.56,0.56,0.82c0.3,0.44,0.6,0.86,0.88,1.26c0.17,0.24,0.33,0.46,0.49,0.68c0.16,0.22,0.31,0.42,0.45,0.62
				c0.87,1.18,1.51,1.99,1.8,2.36L310.55,391.76z M328.65,327.21c0.08,0.49,0.16,0.98,0.24,1.47c0.14,0.93,0.27,1.87,0.37,2.81
				c0.01,0.11,0.03,0.22,0.04,0.34c0.07,0.61,0.13,1.21,0.18,1.82c0.16,1.83,0.26,3.66,0.29,5.49c-7.13,1.69-12.01,4.54-14.55,8.49
				c-0.29,0.46-0.56,0.93-0.79,1.41c-0.23,0.48-0.43,0.98-0.6,1.5c-3.39,10.33,7.46,22.24,7.92,22.75c0.04,0.04,0.08,0.08,0.12,0.12
				c0.13,0.12,0.27,0.21,0.43,0.29c-3.07,6.45-7.02,12.45-11.74,17.85c-0.11-0.14-0.25-0.32-0.43-0.55
				c-0.12-0.15-0.25-0.32-0.4-0.52c-0.07-0.1-0.15-0.2-0.23-0.3c-0.24-0.31-0.5-0.67-0.79-1.07c-1.93-2.64-4.92-7.01-7.69-12.29
				c-0.42-0.79-0.83-1.6-1.23-2.43c-5.67-11.7-7-21.5-3.94-29.13C299.69,335.63,310.73,329.56,328.65,327.21z"/>
			<path class="st3" d="M274.73,390.01c-1.03-0.4-2.05-0.77-3.05-1.11c-2.66-0.91-5.2-1.62-7.6-2.13
				c-8.3-1.75-15.06-1.12-20.09,1.89c-5.03,3.01-8.39,8.34-9.98,15.83c-1.22,5.76-0.88,10.68-0.87,10.73c0.01,0.19,0,0.37-0.05,0.56
				l-0.02,0.07l0.07,0.02c0.6,0.15,1.2,0.29,1.8,0.43c1.8,0.41,3.63,0.76,5.44,1.03l0.05,0.01l0.02-0.04
				c1.7-2.96,5.63-8.28,12.82-10.6c7.98-2.57,17.46-0.63,28.18,5.77l0.03,0.02l0.03-0.01c6.2-2.54,12.07-5.88,17.44-9.94l0.08-0.06
				l-0.09-0.05C290.07,396.94,281.97,392.79,274.73,390.01z M298.78,402.49c-1.75,1.32-3.55,2.56-5.4,3.72
				c-0.62,0.39-1.24,0.77-1.86,1.14c-3.22,1.9-6.57,3.57-10.03,4.99c-0.34-0.2-0.67-0.4-1-0.59c-7.33-4.22-14.08-6.32-20.15-6.29
				c-1.79,0.01-3.53,0.21-5.2,0.59c-0.64,0.15-1.28,0.32-1.91,0.52c-2.48,0.8-4.57,1.95-6.32,3.24c-0.16,0.12-0.32,0.24-0.47,0.35
				c-3.07,2.39-5.01,5.16-6.09,7.03c-0.45-0.07-0.9-0.14-1.35-0.22c-1.93-0.33-3.86-0.74-5.76-1.22c0.04-0.18,0.05-0.36,0.04-0.53
				c0-0.04-0.19-2.7,0.2-6.4c0.04-0.38,0.09-0.78,0.14-1.18c0.04-0.33,0.09-0.67,0.15-1.01c0.05-0.34,0.11-0.69,0.18-1.04
				c0.06-0.35,0.13-0.71,0.21-1.07c0.05-0.23,0.1-0.46,0.15-0.69c0.05-0.22,0.1-0.44,0.16-0.66c1.69-6.75,4.92-11.59,9.61-14.39
				c3.65-2.18,8.21-3.11,13.61-2.77c0.36,0.02,0.72,0.05,1.09,0.08c0.1,0.01,0.21,0.02,0.31,0.03c0.56,0.06,1.14,0.12,1.72,0.21
				c1.06,0.15,2.14,0.34,3.26,0.58c4.19,0.89,8.78,2.39,13.75,4.49c0.71,0.3,1.43,0.61,2.15,0.94c1.09,0.49,2.19,1,3.31,1.55
				c0.3,0.15,0.61,0.3,0.92,0.45C288.78,396.6,293.65,399.32,298.78,402.49C298.78,402.49,298.78,402.49,298.78,402.49
				C298.78,402.49,298.78,402.49,298.78,402.49z"/>
			<path class="st3" d="M307.94,394.1c-0.05-0.05-0.29-0.35-0.68-0.85c-0.07-0.08-0.13-0.17-0.21-0.27
				c-0.29-0.38-0.65-0.85-1.06-1.4c-0.21-0.28-0.42-0.57-0.65-0.89c-0.4-0.55-0.84-1.17-1.3-1.84c-0.26-0.38-0.54-0.78-0.82-1.2
				c-1.89-2.82-4.1-6.42-6.14-10.49c-0.72-1.43-1.38-2.83-1.98-4.22c-0.9-2.08-1.67-4.13-2.3-6.12c-0.21-0.66-0.41-1.32-0.59-1.97
				c-0.36-1.3-0.66-2.58-0.9-3.84c-0.27-1.4-0.46-2.8-0.57-4.14l0-0.05l-27.6-4.55l-0.08-0.01v30.77l0.06,0.01
				c10.62,1.91,23.67,7.66,38.77,17.11l0.04,0.03l0.04-0.03c2.15-1.79,4.22-3.73,6.16-5.74l0.05-0.05l-0.05-0.05
				C308.05,394.22,308,394.16,307.94,394.1z M305.03,397.25c-0.25,0.24-0.51,0.47-0.76,0.7c-0.77,0.7-1.55,1.38-2.34,2.04
				c-3.3-2.06-6.5-3.95-9.59-5.65c-1.33-0.73-2.64-1.43-3.93-2.1c-5.16-2.67-10.02-4.81-14.55-6.42c-1.13-0.4-2.25-0.77-3.34-1.11
				c-0.73-0.22-1.45-0.43-2.16-0.63c-0.36-0.1-0.71-0.19-1.06-0.28c-0.7-0.18-1.39-0.34-2.08-0.49c-0.68-0.15-1.36-0.28-2.02-0.4
				v-30.49l27.41,4.52c0.11,1.33,0.31,2.71,0.57,4.1c0.72,3.77,1.99,7.78,3.79,11.96c0.6,1.39,1.26,2.8,1.98,4.23
				c4.86,9.65,10.63,16.67,10.88,16.96c0.04,0.05,0.09,0.1,0.15,0.16C307.03,395.33,306.04,396.3,305.03,397.25z"/>
			<path class="st3" d="M215.36,365.8c-0.31-0.05-0.62-0.1-0.93-0.16c-0.74-0.13-1.47-0.28-2.2-0.44l-0.01,0h0l-0.01,0
				c-5.12,0.11-8.86,1.65-11.12,4.59c-0.2,0.26-0.38,0.52-0.56,0.8c-0.57,0.9-1.02,1.89-1.36,2.94c-2.7,8.26,1.09,20.5,2.98,25.7
				c0.07,0.19,0.13,0.37,0.2,0.54c0.07,0.18,0.13,0.35,0.19,0.51l0.01,0.02l0.01,0.01c0.27,0.23,0.54,0.45,0.82,0.67
				c0.51,0.42,1.03,0.82,1.56,1.23c3.67,2.81,7.59,5.3,11.69,7.41l0.1,0.05l1.49-43.43l0-0.07l-0.06-0.01
				C217.22,366.07,216.29,365.95,215.36,365.8z M202.67,400.22c-0.06-0.16-0.12-0.33-0.19-0.51c-0.67-1.81-1.68-4.74-2.52-8.13
				c-0.08-0.34-0.17-0.68-0.25-1.03c-0.08-0.35-0.16-0.7-0.24-1.06c-0.08-0.36-0.15-0.71-0.22-1.08c-0.39-1.99-0.69-4.07-0.81-6.12
				c-0.05-0.75-0.07-1.49-0.06-2.23c0.02-2.76,0.41-5.4,1.38-7.67c0.19-0.45,0.41-0.89,0.65-1.31c0.24-0.42,0.51-0.82,0.8-1.2
				c2.23-2.91,5.93-4.43,11-4.54c1.44,0.32,2.91,0.58,4.39,0.78c0.49,0.07,0.98,0.13,1.48,0.18l-1.48,43.15
				C211.65,406.89,206.97,403.79,202.67,400.22z"/>
			<path class="st3" d="M290.64,353.17c0.09-3.33,0.7-6.44,1.83-9.26c0.07-0.17,0.14-0.34,0.21-0.51c0.12-0.27,0.24-0.54,0.37-0.81
				c3.8-8.05,11.99-13.73,24.44-16.96c0.41-0.11,0.83-0.21,1.26-0.31c0.52-0.13,1.05-0.25,1.59-0.36c0.54-0.12,1.08-0.23,1.63-0.34
				c1.93-0.38,3.94-0.71,6.04-0.99l0.08-0.01l-0.02-0.07c-0.36-1.61-0.77-3.21-1.23-4.8c-0.28-0.95-0.57-1.9-0.89-2.84l-0.02-0.05
				h-47.68c-0.03,0-0.06,0-0.09,0l-0.09-0.01l0,0.07c-0.4,6.03-1.79,11.91-4.14,17.47c-2.39,5.66-5.71,10.83-9.85,15.38l-0.09,0.1
				l26.66,4.4L290.64,353.17z M264.25,348.76c0.77-0.85,1.51-1.72,2.23-2.61c3.09-3.87,5.63-8.13,7.56-12.71
				c1.79-4.23,3.02-8.64,3.69-13.17c0.04-0.3,0.09-0.6,0.13-0.91c0.15-1.12,0.26-2.24,0.33-3.37c0.02,0,0.04,0,0.05,0h47.58
				c0.2,0.61,0.4,1.23,0.59,1.85c0.57,1.86,1.07,3.76,1.49,5.65c-0.3,0.04-0.6,0.08-0.9,0.12c-0.59,0.08-1.18,0.17-1.76,0.27
				c-12.46,2-21.64,5.92-27.43,11.72c-0.54,0.54-1.05,1.09-1.53,1.67c-0.24,0.29-0.47,0.58-0.7,0.87c-1.35,1.76-2.44,3.67-3.26,5.72
				c-0.07,0.18-0.14,0.35-0.2,0.53c-0.99,2.67-1.54,5.59-1.63,8.7L264.25,348.76z"/>
			<path class="st3" d="M197.02,394.77c-1.91-6.78-3.36-15.39-1.21-22.17c0.22-0.7,0.48-1.38,0.79-2.04
				c0.47-1.02,1.04-1.99,1.72-2.88c0.1-0.13,0.2-0.26,0.3-0.38c0.1-0.12,0.2-0.23,0.3-0.35c1.51-1.72,3.42-3.02,5.69-3.9l0.17-0.07
				l-0.17-0.07c-0.12-0.04-0.23-0.09-0.35-0.14c-0.33-0.13-0.65-0.26-0.96-0.39c-0.14-0.06-0.28-0.12-0.42-0.18
				c-6.45-2.73-12.25-6.64-17.23-11.61c-4.57-4.57-8.24-9.84-10.93-15.68l-0.11-0.25l-0.02,0.27c-0.13,1.84-0.2,3.7-0.2,5.52
				c0,0.33,0,0.65,0.01,0.98c0.08,6.27,0.89,12.42,2.43,18.4c0.22,0.85,0.46,1.71,0.71,2.55c0.82,2.77,1.79,5.5,2.93,8.19
				c1.58,3.75,3.44,7.34,5.56,10.77c0.33,0.53,0.66,1.05,1,1.57c1.08,1.65,2.23,3.27,3.44,4.84c2.01,2.62,4.2,5.12,6.56,7.49
				l0.19,0.19l-0.08-0.26C197.1,395.04,197.06,394.91,197.02,394.77z M176.32,338.41c2.47,4.51,5.57,8.63,9.23,12.3
				c4.99,4.99,10.8,8.91,17.27,11.64c0.5,0.21,1.03,0.43,1.57,0.63c-2.53,1-4.61,2.55-6.19,4.61c-0.77,1-1.39,2.09-1.89,3.25
				c-0.11,0.26-0.22,0.52-0.32,0.78c-0.1,0.26-0.19,0.53-0.28,0.8c-0.09,0.27-0.17,0.54-0.25,0.82c-0.11,0.41-0.22,0.83-0.31,1.26
				c-0.43,2.03-0.59,4.17-0.56,6.35c0,0.3,0.01,0.59,0.03,0.89c0.03,0.81,0.09,1.63,0.17,2.44c0,0.01,0,0.02,0,0.03
				c0.37,3.74,1.19,7.46,2.13,10.73c-4.18-4.24-7.81-8.87-10.87-13.8c-0.15-0.24-0.29-0.47-0.44-0.71c-0.2-0.33-0.4-0.67-0.6-1.01
				c-0.84-1.45-1.64-2.91-2.38-4.41c0-0.01-0.01-0.02-0.01-0.03c-0.46-0.92-0.9-1.86-1.33-2.8c-0.17-0.39-0.34-0.78-0.51-1.17
				c-0.22-0.52-0.44-1.05-0.66-1.58c-0.43-1.05-0.83-2.12-1.21-3.19c-0.19-0.54-0.37-1.08-0.55-1.62c-0.1-0.32-0.21-0.64-0.31-0.96
				c-0.35-1.11-0.67-2.23-0.97-3.36c-0.03-0.13-0.07-0.26-0.1-0.39c-0.12-0.45-0.23-0.9-0.34-1.36c-0.04-0.18-0.08-0.36-0.13-0.54
				c-1.25-5.4-1.92-10.96-1.99-16.62c0-0.32-0.01-0.64-0.01-0.96c0-1.73,0.06-3.49,0.18-5.24
				C175.21,336.31,175.75,337.37,176.32,338.41z"/>
			<path class="st3" d="M242.18,385.68c0.15-0.09,0.29-0.17,0.44-0.26c4.23-2.4,9.39-3.42,15.36-3.03c0.5,0.03,1,0.07,1.52,0.12
				l0.08,0.01v-29.36l-0.12,0.1c-4.3,3.73-9.14,6.74-14.38,8.96c-6.68,2.83-13.78,4.26-21.1,4.26c-0.72,0-1.46-0.01-2.2-0.04
				l-0.07,0l-1.54,44.86l0,0.05l0.04,0.02c0.38,0.17,0.75,0.34,1.13,0.5c0.33,0.14,0.67,0.29,1,0.42c2.34,0.98,4.75,1.84,7.17,2.58
				l0.09,0.03h0l0-0.1c-0.06-1.62-0.09-5.93,0.95-10.92C232.33,395.47,236.34,389.17,242.18,385.68z M230.16,405.21
				c-0.08,0.45-0.15,0.89-0.21,1.32c-0.05,0.35-0.1,0.69-0.14,1.03c-0.4,3.26-0.39,5.9-0.35,7.15c-3.12-0.95-6.19-2.12-9.15-3.45
				l1.53-44.67c0.36,0.01,0.72,0.02,1.07,0.03c0.36,0.01,0.71,0.01,1.06,0.01c7.33,0,14.45-1.44,21.15-4.27
				c4.56-1.93,8.82-4.46,12.67-7.54c0.55-0.44,1.09-0.89,1.63-1.35v28.9c-0.64-0.06-1.27-0.11-1.89-0.14
				c-0.62-0.03-1.24-0.05-1.84-0.05c-0.74,0-1.47,0.02-2.19,0.06c-0.25,0.02-0.51,0.03-0.76,0.05c-0.74,0.06-1.46,0.15-2.17,0.27
				c-0.03,0-0.05,0.01-0.08,0.01c-1.13,0.18-2.22,0.43-3.27,0.75c-0.21,0.06-0.42,0.13-0.62,0.2c-0.41,0.14-0.82,0.28-1.22,0.44
				c-0.02,0.01-0.04,0.01-0.06,0.02c-0.64,0.25-1.26,0.53-1.87,0.84c-0.01,0-0.01,0.01-0.02,0.01c-0.18,0.09-0.36,0.19-0.54,0.28
				c-0.27,0.15-0.54,0.3-0.8,0.46c-5.87,3.52-9.91,9.84-11.68,18.3C230.33,404.31,230.24,404.76,230.16,405.21z"/>
			<path class="st3" d="M276.3,297.1c-0.03,0.01-0.06,0.02-0.09,0.03c-0.03,0.01-0.07,0.02-0.1,0.04l-0.07,0.02l0.02,0.07
				c1.4,4.85,2.11,9.91,2.11,15.03v0.07h46.49l-0.04-0.1c-4.41-11.3-11.55-21.58-20.65-29.72l-0.05-0.05l-0.05,0.05
				c-0.04,0.04-0.07,0.08-0.11,0.11c-0.11,0.11-0.24,0.2-0.38,0.27l-26.99,14.13C276.36,297.07,276.33,297.08,276.3,297.1z
				 M324.46,312.21h-46.15c0-3.06-0.26-6.1-0.77-9.08c-0.07-0.43-0.15-0.85-0.23-1.28c-0.12-0.62-0.25-1.23-0.39-1.84
				c-0.14-0.61-0.29-1.22-0.46-1.83c-0.08-0.3-0.17-0.61-0.25-0.91c0.09-0.03,0.17-0.07,0.25-0.1l26.99-14.13
				c0.18-0.09,0.34-0.22,0.48-0.36C312.96,290.78,320.06,300.99,324.46,312.21z"/>
			<path class="st3" d="M254.39,410.01c-0.79,0.25-1.54,0.55-2.24,0.88c-0.42,0.2-0.83,0.41-1.22,0.64
				c-0.26,0.15-0.51,0.3-0.76,0.46c-2.47,1.57-4.27,3.54-5.5,5.24c-0.12,0.17-0.24,0.34-0.35,0.5l-0.07,0.1l0.12,0.01
				c2.58,0.26,5.2,0.39,7.79,0.39c1.33,0,2.66-0.03,3.98-0.1c0.53-0.03,1.06-0.06,1.59-0.1c0.53-0.04,1.06-0.08,1.58-0.13
				c0.26-0.02,0.53-0.05,0.79-0.08c2.89-0.29,5.76-0.75,8.59-1.37c0.51-0.11,1.03-0.23,1.54-0.35c0.77-0.18,1.53-0.38,2.3-0.59
				c0.38-0.1,0.76-0.21,1.14-0.32c1.14-0.33,2.27-0.68,3.4-1.07l0.15-0.05l-0.14-0.08C268.37,409.33,260.74,407.98,254.39,410.01z
				 M245.24,416.71c0.13-0.17,0.27-0.35,0.42-0.52c0.14-0.16,0.28-0.33,0.42-0.49c0.17-0.19,0.34-0.38,0.53-0.57
				c0.28-0.29,0.57-0.58,0.88-0.87c0.77-0.72,1.65-1.42,2.63-2.06c0.2-0.13,0.4-0.25,0.6-0.37c0.36-0.21,0.72-0.42,1.11-0.61
				c0.01-0.01,0.03-0.01,0.04-0.02c0.8-0.4,1.65-0.75,2.56-1.04c0.65-0.21,1.32-0.38,2-0.52c1.19-0.24,2.42-0.37,3.7-0.39
				c0.18,0,0.36,0,0.55,0c4.85,0.05,10.27,1.66,16.19,4.82c-4.66,1.57-9.44,2.68-14.3,3.34c-0.32,0.04-0.65,0.09-0.97,0.12
				c-0.78,0.09-1.56,0.18-2.34,0.25c-0.52,0.05-1.05,0.09-1.57,0.13c-1.83,0.13-3.68,0.19-5.52,0.19c-2.55,0-5.13-0.13-7.66-0.38
				C244.72,417.39,244.97,417.05,245.24,416.71z"/>
		</g>
		<path class="st6" d="M155.12,298.76c0.7-4.57,2.43-8.93,5.08-12.72c5.97-8.54,17.88-21.81,29.37-12.5
			c11.69,9.47,2.32,29.04-3.83,39.24c-3.42,5.67-8.58,10.11-14.75,12.49C161.83,328.79,150.65,327.89,155.12,298.76z"/>
		<path class="st7" d="M206.43,317.56v-16.95c0-1.54,1.04-2.89,2.53-3.28l32.55-8.6c0.28-0.07,0.57-0.11,0.87-0.11h24.97
			c1.87,0,3.39,1.52,3.39,3.39v69.12c0,1.87,1.52,3.39,3.39,3.39h10.4c1.87,0,3.39,1.52,3.39,3.39v20c0,1.87-1.52,3.39-3.39,3.39
			h-74.7c-1.87,0-3.39-1.52-3.39-3.39v-20c0-1.87,1.52-3.39,3.39-3.39h21.98c1.89,0,3.41-1.54,3.39-3.43l-0.38-35.59
			c-0.02-1.79-1.42-3.25-3.21-3.35l-21.97-1.21C207.84,320.85,206.43,319.36,206.43,317.56z"/>
	</g>
	<g>
		<g>
			<path class="st3" d="M35.89,470.83c0.92-0.07,1.85-0.09,2.77-0.04l-1.64-2.15C36.64,469.37,36.27,470.1,35.89,470.83z"/>
			<path class="st8" d="M466.27,489.48l6.25-18.83c-2.65-0.15-5.31-0.31-7.96-0.46l0.59-4.66l0.01-0.04c0,0,0,0,0,0l1.73-13.73
				c-1.43-1.08-2.92-2.08-4.46-2.99c-1.29-12.17-1.11-24.5,0.58-36.62c1.64-11.81,4.68-23.38,6.54-35.16
				c0.14-0.89,0.27-1.78,0.4-2.67c1.75,1.27,3.56,2.44,5.44,3.48l-3.68-25.67l0.12-2.13c-0.33-1.27-0.66-2.54-0.97-3.82l-7.16-50.01
				c-0.09,0.08-0.18,0.16-0.28,0.24c-1.25-22.44,0.24-45.04,4.49-67.08c0.43,0.1,0.85,0.2,1.28,0.3l-0.57-3.84
				c1.02-4.92,2.17-9.81,3.47-14.66c-1.75,1.26-3.43,2.62-5.04,4.06l-1.93-13.03c0.98,0.23,1.98,0.34,2.99,0.31l-2.59-19.18
				c1.79,1.22,3.29,2.72,4.1,4.76l-3.19-36.27c-0.5,0.21-0.99,0.43-1.47,0.67l-0.62-15.58c-1.58-0.05-3.08,0.45-4.42,1.31
				l2.97-11.72c0.34,0.19,0.68,0.36,1.03,0.52l0.19-5.3l0.28-1.12c-0.08-0.02-0.16-0.03-0.24-0.05l0.78-22.14
				c-5.6,2.04-9.72,7.82-9.93,13.95c-0.13,3.72,1.18,7.42,3.45,10.3c-0.32,0.35-0.61,0.74-0.85,1.14c-1.39,2.35-1.54,5.31-0.98,8.01
				c0.51,2.42,1.54,4.67,2.61,6.89c-1.28,0.98-2.36,2.28-3.15,3.7c-1.96,3.54-2.38,8.09-0.61,11.74c0.6,1.24,1.47,2.34,2.51,3.22
				c-1.99,1.89-3.71,4.07-5.09,6.47c-1.39,2.42-2.45,5.24-1.91,8c0.75,3.86,4.26,6.28,7.77,8.01c-3.53,3.64-4.75,9.51-2.91,14.31
				c0.62,1.62,1.58,3.08,2.76,4.31c-1.97,3.33-3.59,6.87-4.83,10.55c-1.03,3.08-1.8,6.44-0.99,9.59c0.73,2.84,2.67,5.18,5.03,6.86
				c-4.41,6.05-7.82,12.88-9.98,20.12c-2.79,9.37-3.51,19.35-2.49,29.09c1.21,11.49,4.77,22.52,8.73,33.37
				c-5.33,9.51-7.42,21.05-5.65,31.93c1.19,7.35,4.06,14.31,8.14,20.45c-4.23,8.8-7,18.35-8.1,28.11
				c-2.18,19.47,2.15,38.74,8.28,57.49c-1.91-0.79-3.87-1.45-5.87-1.97c1.76,8.98,4.67,17.72,8.61,25.92
				c-1.44-0.06-2.96,0.01-4.03,0.96c-1.43,1.27-1.46,3.53-1.19,5.45c0.67,4.77,2.49,9.34,5.22,13.25c-1.95,0.33-3.85,1.05-5.06,2.61
				c-1.44,1.86-1.55,4.46-1.32,6.83c0.51,5.11,2.36,10.05,5.26,14.21c-0.12,0.06-0.23,0.12-0.34,0.18
				c-1.94,1.16-2.82,3.67-2.73,5.98c0.09,2.32,0.97,4.51,1.85,6.64c0.65,1.59,1.3,3.17,1.95,4.76c0.34,0.82,0.68,1.65,1.13,2.41
				c-1.74,0.6-2.98,2.44-3.29,4.35c-0.35,2.13,0.25,4.3,1.03,6.3c2.1,5.37,5.61,10.14,10.06,13.66l-1.85-22.05
				c-0.35-0.35-0.72-0.69-1.12-1l3.08-18.03c-1.46-1.21-2.94-2.44-4.68-3.15c-0.21-0.09-0.43-0.17-0.65-0.23l10.75-21.7
				C471.21,490.38,468.76,489.76,466.27,489.48z"/>
			<path class="st8" d="M41.88,360.23c1.15-3.98,1.92-8.07,2.28-12.21c0.46-5.33,0.2-10.88-2.01-15.71
				c-0.75-1.63-1.75-3.16-2.95-4.49c4.41-5.06,7.54-11.41,9.36-18c2.83-10.22,2.83-21.03,2.25-31.64
				c-1.13-20.6-4.39-41.08-9.69-60.97c5.08-3.88,7.82-10.81,6.78-17.25c-0.73-4.52-3.14-8.62-6.27-11.87
				c-1.39-1.44-2.91-2.73-4.52-3.89c1.88-0.17,3.76-0.61,5.57-1.17c3.45-1.07,7.04-2.81,8.64-6.14c1.31-2.72,0.99-6.05-0.28-8.79
				c-1.27-2.74-3.4-4.95-5.69-6.85c-1.57-1.31-3.24-2.49-4.99-3.54c0.83-0.13,1.65-0.31,2.46-0.52c1.82-0.48,3.73-1.26,4.7-2.92
				c1.23-2.1,0.52-4.82-0.47-7.06c-1.64-3.71-4.01-7.07-6.87-9.87c0.1-0.09,0.19-0.19,0.29-0.3c1.92-2.15,1.62-5.55,0.74-8.33
				c-0.93-2.93-2.4-5.67-4.27-8.07c0.6-0.26,1.16-0.61,1.65-1.08c2.25-2.15,2-6.11,0.21-8.69s-4.68-4.04-7.53-5.21l-7.7,16.36
				c2.64-0.16,5.27-0.32,7.91-0.48l-6.81,16.91c1.33,0.28,2.68,0.49,4.04,0.63l-4.43,16.3c1.11,0.54,2.25,0.99,3.42,1.37
				l-3.74,18.38c0.17,3.64,2.88,6.72,6.15,8.14l-7.63,35.15c3.2,1.85,6.98,2.52,10.61,2.05c1.93,26.98,1.29,54.16-1.9,81.01
				c-1.26,10.6-2.91,21.47-0.77,31.89l0.09,6.66c-3.37,16.59-3.18,33.98-2.94,51.04c0.3,21.37,0.6,42.74,0.91,64.1
				c-0.56,0-1.13,0.01-1.69,0.03l1.72,2.26c0.08,5.51,0.16,11.01,0.23,16.52l2.81,0.62c0.49,7.46,0.97,14.92,1.46,22.38
				c-1.9,0.2-3.72,0.87-5.17,2.13c-2.85,2.5-3.62,6.65-4.1,10.48c-1.42,11.34-1.82,22.82-1.2,34.24l5.55,0.65l4.11,12.36
				c-0.92-0.29-1.87-0.48-2.83-0.55l8.08,25.95c4.29-3.74,6.1-10.25,4.38-15.77c-0.57-1.84-1.52-3.52-2.74-4.98
				c1.68-1.7,2.95-4.04,3.89-6.3c1.57-3.75,2.75-8.07,1.25-11.85c-0.53-1.34-1.37-2.5-2.41-3.46c2.81-2.64,5.23-5.7,7.03-9.16
				c3.19-6.13,4.28-13.57,2.18-20.19c-1.45-4.58-4.53-8.64-8.48-11.12c2.65-4.9,4.46-10.29,5.28-15.84c0.4-2.71,0.54-5.64-0.74-8.05
				c-0.83-1.56-2.18-2.73-3.74-3.51c0.47-1.78,0.95-3.55,1.42-5.33c0.59-2.21,1.15-4.73-0.02-6.69c-0.56-0.93-1.42-1.58-2.38-2.06
				c4.38-9.14,8.3-18.49,10.97-28.29c4.36-15.99,5.21-33.52-0.75-48.95C49.8,373.47,45.65,366.95,41.88,360.23z M35.89,470.83
				c0.38-0.73,0.75-1.46,1.13-2.19l1.64,2.15C37.74,470.74,36.81,470.76,35.89,470.83z"/>
		</g>
		<g id="XMLID_1_">
			<g>
				<path class="st9" d="M488.92,40.95V641.4c0,17.36-13.62,31.44-30.42,31.45l-414.95,0.21c-16.71,0.01-30.3-13.9-30.45-31.16
					L7.92,41.23C7.77,23.75,21.44,9.5,38.36,9.5h420.13C475.29,9.5,488.92,23.58,488.92,40.95z M462.39,100.72
					c2.97-64.28-49.35-69.35-75.26-58.37c-48.49,20.56-129.01,35.68-129.01,35.68s-46.89,12.05-131.76-30.01
					s-92.41,57.19-92.41,57.19l4.12,480.18c-4.12,50.57,44.13,65.72,117.34,38.52C254,587.28,299.98,607.6,380.95,638.8
					c69.92,26.93,81.66-49.15,81.66-49.15S459.41,164.99,462.39,100.72z M264.75,645.18h73.65c-44.83-28.12-73.65-26.47-73.65-26.47
					V645.18z M337.72,37.62h-73.65v26.47C264.07,64.09,292.89,65.74,337.72,37.62z M253.77,52.27c0-4.96-3.89-8.98-8.69-8.98
					s-8.69,4.02-8.69,8.98s3.89,8.98,8.69,8.98S253.77,57.23,253.77,52.27z M253.77,631.47c0-4.96-3.89-8.98-8.69-8.98
					s-8.69,4.02-8.69,8.98c0,4.96,3.89,8.98,8.69,8.98S253.77,636.43,253.77,631.47z M229.98,644.71v-26.47
					c0,0-28.82-1.65-73.65,26.47H229.98z M226.55,64.09V37.62H152.9C197.73,65.74,226.55,64.09,226.55,64.09z"/>
				<ellipse class="st9" cx="245.08" cy="585.63" rx="8.69" ry="8.98"/>
				<ellipse class="st9" cx="244.85" cy="97.65" rx="8.69" ry="8.98"/>
			</g>
			<g>
				<path class="st10" d="M38.07,585.39l-4.12-480.18c0,0,7.55-99.25,92.41-57.19s131.76,30.01,131.76,30.01
					s80.52-15.12,129.01-35.68c25.9-10.98,78.23-5.91,75.26,58.37s0.23,488.93,0.23,488.93s-11.74,76.09-81.66,49.15
					C299.98,607.6,254,587.28,155.42,623.91C82.2,651.11,33.95,635.96,38.07,585.39z"/>
				<path class="st10" d="M38.36,9.5h420.13c16.81,0,30.44,14.08,30.44,31.45V641.4c0,17.36-13.62,31.44-30.42,31.45l-414.95,0.21
					c-16.71,0.01-30.3-13.9-30.45-31.16L7.92,41.23C7.77,23.75,21.44,9.5,38.36,9.5z"/>
				<path class="st10" d="M152.9,37.62h73.65v26.47C226.55,64.09,197.73,65.74,152.9,37.62z"/>
				<path class="st10" d="M338.41,645.18h-73.65v-26.47C264.75,618.71,293.58,617.06,338.41,645.18z"/>
				<path class="st10" d="M156.33,644.71h73.65v-26.47C229.98,618.24,201.16,616.58,156.33,644.71z"/>
				<path class="st10" d="M337.72,37.62h-73.65v26.47C264.07,64.09,292.89,65.74,337.72,37.62z"/>
				<ellipse class="st11" cx="244.85" cy="97.65" rx="8.69" ry="8.98"/>
				<ellipse class="st11" cx="245.08" cy="52.27" rx="8.69" ry="8.98"/>
				<ellipse class="st11" cx="245.08" cy="585.63" rx="8.69" ry="8.98"/>
				<ellipse class="st11" cx="245.08" cy="631.47" rx="8.69" ry="8.98"/>
			</g>
		</g>
	</g>
</g>
</svg>
