<?xml version="1.0" encoding="utf-8"?>
<!-- Generator: Adobe Illustrator 24.1.2, SVG Export Plug-In . SVG Version: 6.00 Build 0)  -->
<svg version="1.1" id="Capa_1" xmlns="http://www.w3.org/2000/svg" xmlns:xlink="http://www.w3.org/1999/xlink" x="0px" y="0px"
	 viewBox="0 0 2015 1986" style="enable-background:new 0 0 2015 1986;" xml:space="preserve">
<style type="text/css">
	.st0{fill:none;stroke:#FFFFFF;stroke-width:100;stroke-miterlimit:10;}
	.st1{fill:url(#SVGID_1_);}
	.st2{fill:none;}
	.st3{fill:#AF5912;stroke:#7D451B;stroke-width:0.5;stroke-miterlimit:10;}
	.st4{fill:none;stroke:#FFFFFF;stroke-width:0.5;stroke-linecap:round;stroke-linejoin:round;}
	.st5{fill:#FFD986;}
	.st6{fill:#E83636;stroke:#FFFFFF;stroke-width:14;stroke-miterlimit:10;}
</style>
<g>
	<circle class="st0" cx="1001" cy="994" r="929.5"/>
	<radialGradient id="SVGID_1_" cx="1001" cy="994" r="929.5" gradientUnits="userSpaceOnUse">
		<stop  offset="0" style="stop-color:#FF931E"/>
		<stop  offset="1" style="stop-color:#DF7B00"/>
	</radialGradient>
	<circle class="st1" cx="1001" cy="994" r="929.5"/>
	<g>
		<path class="st2" d="M1173.46,605.27c2.5,5.9,4.89,11.97,7.11,18.05l185.06-96.85c-95.3-77.14-214.45-120.7-336.78-123.35
			c-3.95-0.09-7.9-0.13-11.85-0.13c-12.37,0-24.96,0.42-37.45,1.26c41.16,19.17,78.38,45.25,110.66,77.53
			C1125.88,517.46,1153.89,559.01,1173.46,605.27z"/>
		<path class="st2" d="M1383.76,547.46l-193,101c-0.53,0.28-1.1,0.52-1.76,0.75c0.62,2.16,1.22,4.32,1.8,6.48
			c1.16,4.33,2.25,8.69,3.26,13.06c1.01,4.37,1.94,8.77,2.8,13.18c0.59,3.03,1.14,6.07,1.66,9.12c3.62,21.34,5.45,43.06,5.48,64.94
			h329.95c-31.47-80.25-82.19-153.24-146.74-211.13C1386.19,545.92,1385.03,546.79,1383.76,547.46z"/>
		<path class="st2" d="M945.14,1280.39c1.89-1.13,3.81-2.22,5.76-3.27c1.27-0.69,2.55-1.37,3.85-2.02c0.04-0.02,0.07-0.04,0.11-0.05
			c4.33-2.19,8.79-4.19,13.37-6c0.14-0.05,0.28-0.1,0.41-0.16c2.86-1.12,5.76-2.17,8.71-3.14c1.48-0.49,2.96-0.95,4.46-1.4
			c7.5-2.25,15.29-4.03,23.37-5.35c0.18-0.03,0.37-0.05,0.55-0.08c5.06-0.81,10.23-1.45,15.51-1.9c1.79-0.15,3.6-0.28,5.41-0.39
			c5.12-0.31,10.34-0.47,15.65-0.45c4.32,0.02,8.71,0.14,13.16,0.38c4.45,0.24,8.96,0.58,13.54,1.04v-206.66
			c-3.82,3.3-7.71,6.52-11.65,9.66c-27.59,21.99-58.01,40.08-90.62,53.88c-47.91,20.26-98.79,30.54-151.23,30.54
			c-2.5,0-5.03-0.02-7.58-0.07c-2.55-0.05-5.11-0.12-7.67-0.22l-10.95,319.41c21.16,9.56,43.18,17.86,65.46,24.69
			c-0.31-8.94-0.42-27.78,2.47-51.09c0.3-2.41,0.63-4.87,1-7.37c0.45-3.08,0.96-6.22,1.52-9.41c0.56-3.19,1.19-6.44,1.88-9.72
			C874.29,1350.77,903.17,1305.53,945.14,1280.39z"/>
		<path class="st2" d="M1493.59,1019.56c-1.49,1.97-2.86,3.98-4.09,6.04c-2.45,4.07-4.4,8.33-5.86,12.78
			c-0.51,1.56-0.96,3.13-1.35,4.71c-6.66,26.94,3.86,56.9,17.22,81.47c3.74,6.88,7.71,13.33,11.58,19.18
			c0.27,0.41,0.54,0.82,0.81,1.22c0.57,0.85,1.14,1.7,1.71,2.52c0.2,0.29,0.4,0.58,0.59,0.87c0.9,1.31,1.79,2.57,2.67,3.8
			c0.24,0.33,0.47,0.66,0.71,0.99c4.95,6.88,9.4,12.45,12.58,16.26c6.69-16.19,12.59-32.62,17.69-49.26
			c3.97-12.95,7.45-26.02,10.44-39.22c2.74-12.06,5.07-24.22,6.99-36.46c0.64-4.08,1.23-8.17,1.78-12.27s1.05-8.21,1.51-12.32
			c1.6-14.41,2.64-28.92,3.12-43.51C1534.16,986.07,1508,1000.56,1493.59,1019.56z"/>
		<path class="st2" d="M462.04,964.87c0.49,40.46,5.32,80.25,14.24,118.83c0.3,1.28,0.6,2.56,0.9,3.84
			c0.78,3.24,1.58,6.48,2.41,9.71c0.24,0.94,0.48,1.87,0.73,2.8c2.13,8.05,4.43,16.05,6.91,23.99c0.72,2.29,1.45,4.59,2.2,6.87
			c1.27,3.87,2.58,7.72,3.93,11.56c2.71,7.67,5.58,15.28,8.63,22.83c1.52,3.77,3.09,7.53,4.69,11.26c1.2,2.79,2.42,5.57,3.66,8.33
			c3.02,6.73,6.18,13.4,9.48,20.01c0.03,0.07,0.06,0.13,0.1,0.2c5.33,10.67,11.02,21.18,17.05,31.51c1.4,2.41,2.83,4.8,4.27,7.19
			c1.03,1.7,2.07,3.4,3.12,5.09c21.86,35.31,47.84,68.41,77.73,98.69c-6.67-23.44-12.58-50.02-15.2-76.75
			c-0.01-0.08-0.02-0.15-0.02-0.23c-0.57-5.82-0.97-11.65-1.19-17.46c-0.08-2.13-0.15-4.26-0.18-6.39
			c-0.24-15.59,0.93-30.93,4.01-45.42c0.65-3.04,1.38-6.04,2.19-8.99c0.55-1.97,1.13-3.92,1.76-5.85c0.63-1.93,1.29-3.84,2-5.73
			c0.71-1.89,1.46-3.75,2.26-5.59c3.58-8.28,8.05-16.08,13.53-23.23c11.25-14.69,26.13-25.77,44.23-32.95
			c-3.83-1.48-7.6-3-11.21-4.53c-46.26-19.57-87.81-47.58-123.48-83.25c-26.23-26.23-48.36-55.71-66.02-87.93
			c-4.08-7.43-7.91-15.01-11.51-22.73C462.42,933.04,462,945.63,462,958C462,960.29,462.01,962.58,462.04,964.87z"/>
		<path class="st2" d="M1056.5,1511.61c3.74-0.26,7.48-0.57,11.22-0.91c5.6-0.51,11.19-1.1,16.76-1.78
			c2.32-0.28,4.64-0.58,6.96-0.89c34.76-4.68,68.95-12.65,102.24-23.86c-42.34-22.62-81.09-34.14-115.75-34.47
			c-1.31-0.01-2.62-0.01-3.92,0.01c-9.11,0.14-17.92,1.07-26.44,2.79c-4.87,0.98-9.65,2.2-14.32,3.69
			c-6.54,2.09-12.65,4.62-18.34,7.47c-0.09,0.05-0.19,0.09-0.29,0.14c-2.73,1.38-5.37,2.83-7.91,4.35c-1.47,0.87-2.9,1.77-4.31,2.68
			c-7.03,4.56-13.28,9.56-18.8,14.7c-2.21,2.06-4.3,4.14-6.29,6.22c-1.3,1.37-2.56,2.74-3.76,4.1c-1.05,1.18-2.06,2.37-3.04,3.54
			c-1.04,1.25-2.04,2.5-3,3.73c-1.92,2.46-3.69,4.87-5.3,7.2c18.12,1.78,36.55,2.69,54.78,2.69
			C1030.22,1513,1043.39,1512.54,1056.5,1511.61z"/>
		<path class="st2" d="M762.74,1141.46c-10.55-1.43-21.06-3.3-31.37-5.58c-36.27,0.76-62.74,11.68-78.67,32.46
			c-2.1,2.74-4.01,5.61-5.74,8.61c-1.73,3-3.28,6.13-4.67,9.36c-6.94,16.18-9.73,35.09-9.84,54.82c-0.03,5.26,0.13,10.58,0.46,15.92
			c0.89,14.68,3.01,29.52,5.79,43.75c0.51,2.59,1.03,5.16,1.58,7.7c0.54,2.54,1.11,5.06,1.69,7.55c0.58,2.49,1.17,4.95,1.77,7.38
			c6.04,24.27,13.2,45.18,18.03,58.16c0.48,1.3,0.94,2.52,1.37,3.65c30.74,25.5,64.24,47.7,99.58,66l10.58-308.5
			C769.78,1142.36,766.26,1141.93,762.74,1141.46z"/>
		<path class="st2" d="M1304.26,982.25c5.87-14.67,13.65-28.31,23.32-40.91c1.61-2.1,3.28-4.17,4.99-6.22
			c3.43-4.09,7.08-8.06,10.93-11.91c41.42-41.44,107.03-69.5,196.13-83.78c4.14-0.66,8.34-1.3,12.58-1.9
			c2.12-0.3,4.26-0.6,6.41-0.88c-3.03-13.54-6.61-27.07-10.67-40.4c-1.35-4.44-2.76-8.86-4.23-13.25H1203.5
			c-0.13,0-0.26,0-0.39-0.01c-0.54,8.08-1.33,16.11-2.37,24.1c-0.28,2.16-0.58,4.32-0.9,6.48c-4.76,32.36-13.59,63.91-26.38,94.15
			c-13.85,32.74-31.99,63.2-54.07,90.86c-5.1,6.38-10.4,12.62-15.92,18.69l187.66,30.97c0.63-22.22,4.54-43.12,11.65-62.2
			C1303.27,984.77,1303.76,983.51,1304.26,982.25z"/>
		<path class="st2" d="M1415.11,1342.11c-1.74-2.1-43.06-52.27-77.78-121.28c-5.14-10.21-9.86-20.31-14.16-30.27
			c-12.9-29.87-22-58.53-27.13-85.5c-1.89-9.93-3.26-19.79-4.07-29.32L1096,1043.41v217.98c4.75,0.86,9.56,1.82,14.44,2.89
			s9.82,2.25,14.84,3.53c2.51,0.64,5.03,1.31,7.57,2.01c5.08,1.39,10.22,2.89,15.43,4.49c7.81,2.41,15.77,5.05,23.87,7.93
			c32.41,11.52,67.13,26.85,104.02,45.92c9.22,4.77,18.58,9.77,28.07,15c22.15,12.21,45.02,25.69,68.59,40.43
			c5.66-4.74,11.24-9.61,16.73-14.59c1.83-1.66,3.65-3.33,5.46-5.02c7.24-6.74,14.3-13.68,21.13-20.76
			C1415.75,1342.84,1415.41,1342.48,1415.11,1342.11z"/>
		<path class="st2" d="M1357.52,1200.59c2.87,5.93,5.81,11.73,8.78,17.38c19.81,37.71,41.18,68.99,55,87.86
			c2.07,2.83,3.98,5.38,5.68,7.63c0.57,0.75,1.11,1.47,1.64,2.15c1.04,1.37,1.99,2.6,2.84,3.69c1.27,1.63,2.31,2.95,3.09,3.92
			c33.79-38.58,62.03-81.51,83.97-127.63c-1.12-0.55-2.15-1.25-3.06-2.07c-0.31-0.28-0.6-0.57-0.88-0.87
			c-3.31-3.59-80.82-88.79-56.62-162.64c1.2-3.67,2.63-7.25,4.28-10.71c1.65-3.47,3.53-6.83,5.62-10.09
			c18.17-28.24,53.04-48.61,104.04-60.72c-0.22-13.09-0.91-26.21-2.06-39.27c-0.38-4.35-0.81-8.7-1.3-13.04
			c-0.09-0.8-0.18-1.6-0.27-2.4c-0.78-6.71-1.66-13.4-2.68-20.06c-0.54-3.52-1.11-7.03-1.72-10.54
			c-128.09,16.82-207.01,60.25-234.56,129.1C1307.49,1046.84,1316.98,1116.92,1357.52,1200.59z"/>
		<path class="st2" d="M1239.48,1339.96c-8.02-3.88-15.92-7.57-23.7-11.06c-5.19-2.33-10.32-4.56-15.39-6.71
			c-35.53-15.05-68.37-25.78-98.33-32.12c-7.97-1.69-15.74-3.05-23.31-4.12c-4.16-0.59-8.26-1.08-12.29-1.48
			c-0.74-0.07-1.47-0.15-2.21-0.21c-2.63-0.24-5.23-0.44-7.81-0.6c-38.63-2.39-71.26,4.24-97.34,19.84
			c-33.54,20.05-56.62,54.65-68.69,102.9c-0.39,1.56-0.77,3.13-1.13,4.71c-0.38,1.64-0.74,3.29-1.1,4.95
			c-0.54,2.56-1.05,5.11-1.51,7.62c-0.46,2.51-0.88,4.99-1.26,7.43c-0.38,2.44-0.73,4.85-1.04,7.21c-0.38,2.88-0.71,5.69-1,8.42
			c-2.77,26.42-1.44,45.49-1.42,45.75c0.09,1.27,0,2.55-0.27,3.82c13.58,3.41,27.39,6.32,41.18,8.69c3.22,0.55,6.44,1.09,9.66,1.58
			c7.71-13.36,21.63-33.21,43.56-50.27c1.1-0.85,2.21-1.7,3.35-2.54c12.51-9.22,27.46-17.46,45.17-23.17
			c4.48-1.44,9.03-2.67,13.63-3.72c11.98-2.73,24.38-4.15,37.21-4.21c43.43-0.21,91.66,14.82,144.09,44.97
			c2.38,1.37,4.78,2.77,7.18,4.21c24.71-10.12,48.69-22.05,71.72-35.66c4.48-2.65,8.92-5.36,13.33-8.13
			c13.22-8.32,26.1-17.2,38.61-26.63c-36.68-22.63-71.51-42.08-104.36-58.28C1243.84,1342.07,1241.66,1341.01,1239.48,1339.96z"/>
		<path class="st3" d="M1559.71,1187.27c30.72-72.63,46.29-149.76,46.29-229.27s-15.58-156.65-46.29-229.27
			c-29.67-70.14-72.13-133.13-126.22-187.22c-54.09-54.09-117.08-96.55-187.22-126.22C1173.64,384.58,1096.51,369,1017,369
			c-37.52,0-74.99,3.53-111.35,10.48c-28.28,5.41-56.42,13-83.69,22.58c28.07,0.51,55.95,4.32,82.91,11.35
			c74.48,19.42,141.85,63.7,189.69,124.71c23.95,30.54,42.6,64.5,55.43,100.91c13.27,37.68,20,77.21,20,117.47
			c0,195.47-159.03,354.5-354.5,354.5c-40.26,0-79.78-6.73-117.47-20c-36.42-12.83-70.37-31.48-100.91-55.43
			c-61-47.84-105.29-115.21-124.71-189.69c-7.03-26.96-10.85-54.85-11.35-82.91c-9.58,27.27-17.17,55.41-22.58,83.69
			C431.53,883.02,428,920.48,428,958c0,79.51,15.58,156.65,46.29,229.27c29.67,70.14,72.13,133.13,126.22,187.22
			c54.09,54.09,117.08,96.55,187.22,126.22C860.36,1531.42,937.49,1547,1017,1547s156.64-15.58,229.27-46.29
			c70.14-29.67,133.13-72.13,187.22-126.22C1487.57,1320.4,1530.04,1257.41,1559.71,1187.27z M622.76,1349.68
			c-16.84-16.95-32.48-34.81-46.88-53.52c-8.64-11.23-16.83-22.76-24.56-34.59c-2.43-3.71-4.81-7.45-7.15-11.22
			c-15.19-24.49-28.47-50.19-39.77-76.98c-8.1-19.21-15.08-38.75-20.92-58.57c-1.79-6.06-3.47-12.14-5.04-18.25
			c-11.02-42.76-16.85-86.76-17.4-131.56c-0.03-2.33-0.04-4.66-0.04-6.99c0-13.03,0.47-26.31,1.4-39.46l0.14-1.95l0.82,1.77
			c19.2,41.75,45.49,79.48,78.15,112.14c35.58,35.58,77.02,63.52,123.17,83.04c0.99,0.42,2,0.84,3.02,1.26
			c2.25,0.93,4.55,1.85,6.87,2.76c0.83,0.32,1.66,0.65,2.49,0.97l1.22,0.47l-1.22,0.47c-16.23,6.23-29.9,15.59-40.7,27.86
			c-0.72,0.82-1.43,1.65-2.12,2.49c-0.74,0.9-1.47,1.81-2.18,2.74c-4.89,6.38-8.97,13.28-12.32,20.59
			c-2.16,4.71-4.03,9.59-5.61,14.6c-15.35,48.51-5.03,110.1,8.66,158.55c0.27,0.97,0.55,1.94,0.83,2.9l0.54,1.88L622.76,1349.68z
			 M774.31,1142.31l-10.65,310.54l-0.7-0.36c-29.29-15.11-57.32-32.89-83.58-53.01c-3.75-2.87-7.46-5.8-11.14-8.76
			c-1.96-1.58-3.91-3.18-5.85-4.79l-0.1-0.08l-0.05-0.12c-0.43-1.13-0.89-2.35-1.37-3.65c-0.45-1.22-0.93-2.5-1.42-3.86
			c-13.52-37.22-40.57-124.75-21.27-183.79c2.46-7.51,5.66-14.57,9.74-21c1.24-1.96,2.57-3.86,3.98-5.7
			c16.13-21.05,42.88-32.1,79.5-32.85l0.06,0h0l0.06,0.01c5.21,1.15,10.46,2.2,15.75,3.13c2.2,0.39,4.41,0.76,6.62,1.12
			c6.64,1.06,13.3,1.95,19.96,2.65l0.46,0.05L774.31,1142.31z M1572.71,975.72c-0.91,29.07-4.06,57.81-9.42,86.06
			c-1.24,6.52-2.59,13.01-4.06,19.48c-0.92,4.06-1.89,8.1-2.9,12.14c-1.01,4.04-2.07,8.06-3.18,12.07
			c-0.55,2.01-1.12,4.01-1.69,6.01c-1.15,4-2.35,7.99-3.59,11.97c-4.97,15.91-10.68,31.61-17.1,47.09l-0.32,0.76l0,0l-0.53-0.63
			c-4.07-4.84-10.49-12.88-17.41-23.02c-0.81-1.19-1.64-2.42-2.46-3.67c-3.71-5.63-7.51-11.8-11.11-18.38
			c-0.8-1.46-1.59-2.94-2.37-4.44c-1.17-2.25-2.3-4.53-3.4-6.86c-0.37-0.77-0.73-1.55-1.09-2.33c-1.79-3.9-3.46-7.9-4.96-11.95
			c-4.82-12.98-7.97-26.58-7.9-39.9c0.02-3.75,0.3-7.47,0.86-11.16c0.42-2.76,1.01-5.5,1.77-8.21c0.25-0.9,0.53-1.8,0.82-2.7
			c1.78-5.42,4.29-10.57,7.51-15.44c1.07-1.62,2.23-3.22,3.46-4.78c1.85-2.34,3.88-4.62,6.09-6.82
			c15.46-15.42,39.65-27.41,72.34-35.8l0.65-0.17L1572.71,975.72z M1386.01,544.64c0.27-0.26,0.54-0.53,0.79-0.81l0.33-0.37
			l0.37,0.33c65.02,58.22,116.07,131.71,147.63,212.53l0.27,0.68H1203v-0.5c0-36.62-5.08-72.78-15.09-107.48l-0.14-0.47l0.47-0.15
			c0.26-0.08,0.51-0.17,0.74-0.25c0.21-0.08,0.42-0.16,0.61-0.24c0.25-0.11,0.48-0.22,0.71-0.33l193-101
			C1384.28,546.06,1385.19,545.41,1386.01,544.64z M1108.71,503.12c-6.13-7.08-12.53-13.95-19.2-20.63
			c-8.16-8.16-16.64-15.93-25.43-23.29c-3.29-2.76-6.63-5.46-10.01-8.1c-23.64-18.5-49.31-34.16-76.71-46.76l-1.77-0.82l1.95-0.14
			c13.15-0.93,26.43-1.4,39.46-1.4c18.22,0,36.34,0.88,54.32,2.63c4,0.39,7.98,0.82,11.96,1.29c1.99,0.24,3.98,0.49,5.97,0.74
			c5.96,0.78,11.9,1.65,17.83,2.62c3.95,0.65,7.89,1.33,11.82,2.07c11.06,2.06,22.05,4.45,32.97,7.18
			c18.19,4.55,36.16,10.04,53.88,16.45c25.55,9.25,50.3,20.33,74.12,33.16c3.4,1.83,6.79,3.7,10.15,5.61
			c10.09,5.71,20.01,11.75,29.75,18.09c6.49,4.23,12.9,8.6,19.22,13.11c9.48,6.76,18.78,13.84,27.87,21.22l0.59,0.48l-187.42,98.08
			l-0.2-0.54c-0.57-1.56-1.15-3.12-1.74-4.68c-1.77-4.67-3.63-9.31-5.55-13.86c-12.88-30.46-29.44-58.87-49.44-84.9
			C1118.49,514.75,1113.69,508.87,1108.71,503.12z M1102.12,1017.29c29.61-32.49,53.31-69.48,70.42-109.95
			c16.81-39.75,26.77-81.78,29.61-124.91l0.03-0.5l0.67,0.04c0.22,0.01,0.43,0.03,0.65,0.03h340.95l0.11,0.34
			c2.24,6.7,4.35,13.47,6.34,20.28c3.31,11.36,6.26,22.85,8.82,34.33l0.12,0.53l-0.54,0.07c-15.03,2-29.44,4.36-43.22,7.09
			c-3.94,0.78-7.83,1.59-11.66,2.43c-3.84,0.84-7.62,1.71-11.36,2.6c-3.03,0.73-6.03,1.48-9,2.25
			c-89,23.06-147.6,63.67-174.76,121.24c-0.91,1.92-1.78,3.86-2.61,5.81c-0.51,1.2-1.02,2.42-1.5,3.63
			c-8.06,20.14-12.45,42.42-13.06,66.22l-0.01,0.57l-190.61-31.45L1102.12,1017.29z M855.78,1489.47l0.03,0.7h0l-0.67-0.2
			c-17.34-5.29-34.53-11.47-51.29-18.45c-2.39-1-4.78-2.01-7.16-3.04c-2.72-1.18-5.42-2.37-8.11-3.59l-0.31-0.14l0.01-0.33
			l11-320.75l0.5,0.02c5.28,0.21,10.57,0.32,15.72,0.32c52.31,0,103.05-10.25,150.84-30.46c37.52-15.87,72.12-37.43,102.83-64.09
			l0.83-0.72v209.96l-0.55-0.06c-3.65-0.37-7.26-0.66-10.83-0.89c-42.69-2.75-79.57,4.52-109.82,21.67
			c-1.06,0.6-2.11,1.21-3.15,1.83c-41.72,25-70.44,70.01-83.05,130.16C855.13,1447.05,855.34,1477.87,855.78,1489.47z
			 M1195.1,1484.75c-8.05,2.73-16.15,5.27-24.31,7.62c-2.72,0.78-5.44,1.55-8.17,2.29c-5.46,1.48-10.93,2.88-16.43,4.19
			c-3.66,0.88-7.34,1.71-11.02,2.51c-20.24,4.4-40.73,7.66-61.41,9.76c-1.88,0.19-3.76,0.37-5.64,0.55
			c-3.76,0.34-7.53,0.65-11.31,0.92c-3.78,0.27-7.56,0.5-11.34,0.69c-9.46,0.48-18.96,0.72-28.48,0.72
			c-18.55,0-37.29-0.93-55.72-2.78l-0.84-0.08l0.48-0.7c0.81-1.18,1.65-2.37,2.54-3.59c8.85-12.18,21.71-26.24,39.35-37.48
			c1.76-1.12,3.58-2.22,5.44-3.28c2.79-1.59,5.69-3.11,8.7-4.54c5.02-2.38,10.35-4.51,16.01-6.32c45.38-14.5,99.96-4.88,162.23,28.6
			l1.01,0.54L1195.1,1484.75z M1351.57,1401.79c-38.41,29.03-80.37,52.95-124.69,71.08l-0.23,0.09l-0.21-0.13
			c-76.64-45.8-144.44-59.69-201.51-41.29c-51.43,16.59-79.53,54.63-91.7,75.82l-0.17,0.3l-0.34-0.05c-12.97-1.98-26-4.46-38.9-7.38
			c-4.3-0.98-8.58-2-12.85-3.08l-0.48-0.12l0.12-0.48c0.33-1.32,0.45-2.66,0.35-3.98c-0.03-0.35-2.49-35.54,6.25-76.71
			c11.38-53.61,35.39-91.7,71.38-113.22c36.02-21.54,84.36-26.09,143.68-13.55c17.18,3.63,35.31,8.71,54.35,15.22
			c7.14,2.44,14.41,5.08,21.8,7.92c51.75,19.88,109.68,49.56,173.11,88.74l0.62,0.38L1351.57,1401.79z M1417.23,1343.55
			c-13.88,14.41-28.7,28.22-44.04,41.05l-0.28,0.23l-0.31-0.19c-107.99-67.54-201.25-108.7-277.2-122.34l-0.41-0.07v-219.99
			l0.58,0.1l197.31,32.56l0.03,0.39c0.81,9.61,2.18,19.57,4.09,29.61c1.71,8.97,3.85,18.12,6.43,27.45
			c1.29,4.66,2.69,9.37,4.19,14.11c4.52,14.24,10.01,28.83,16.44,43.74c4.29,9.94,9,20.01,14.13,30.2
			c14.63,29.07,30.43,54.79,43.93,74.98c2,2.99,3.95,5.86,5.84,8.6c3.31,4.79,6.42,9.19,9.29,13.16c1.64,2.27,3.2,4.39,4.66,6.37
			c2.93,3.96,5.49,7.32,7.6,10.03c0.53,0.68,1.02,1.32,1.49,1.91c2.8,3.58,4.52,5.66,4.84,6.05c0.37,0.44,0.79,0.87,1.33,1.36
			l0.39,0.35L1417.23,1343.55z M1418.02,1303.02c-1.12-1.55-2.28-3.17-3.48-4.85c-1.99-2.81-4.09-5.81-6.27-8.98
			c-1.31-1.9-2.65-3.87-4.01-5.9c-0.45-0.68-0.91-1.36-1.37-2.05c-3.57-5.34-7.3-11.08-11.13-17.17
			c-11.48-18.27-23.82-39.69-35.14-63.05c-5.61-11.58-10.64-22.96-15.08-34.12c-2.66-6.7-5.11-13.31-7.35-19.84
			c-0.75-2.18-1.47-4.34-2.16-6.5c-4.88-15.09-8.59-29.7-11.09-43.73c-1.99-11.14-3.22-21.94-3.69-32.37
			c-0.16-3.48-0.23-6.92-0.22-10.31c0.01-2.26,0.05-4.51,0.13-6.74c0.24-6.68,0.82-13.2,1.74-19.55c1.83-12.69,5-24.69,9.5-35.95
			c27.73-69.29,107.08-112.96,235.83-129.79l0.48-0.06l0.08,0.47c0.62,3.54,1.2,7.1,1.74,10.66c3.83,24.95,5.97,50.35,6.38,75.68
			l0.01,0.4l-0.39,0.09c-1.96,0.46-3.89,0.94-5.8,1.42c-55.38,14.11-90.69,38.42-105.13,72.36c-1,2.34-1.89,4.73-2.69,7.16
			c-0.38,1.15-0.73,2.29-1.05,3.44c-0.4,1.4-0.76,2.81-1.09,4.22c-8.85,38.04,7.43,78.26,25.06,108.08
			c2.61,4.42,5.25,8.6,7.85,12.52c12.37,18.69,23.66,31.25,25.48,33.23c0.06,0.06,0.11,0.12,0.15,0.16c0.57,0.62,1.2,1.18,1.89,1.67
			c0.68,0.49,1.41,0.91,2.19,1.26l0.47,0.21l-0.22,0.46c-22.09,46.55-50.6,89.87-84.73,128.76l-0.39,0.45l-0.37-0.46
			c-2.1-2.62-6.69-8.43-12.89-16.86C1420.22,1306.05,1419.14,1304.57,1418.02,1303.02z"/>
		<path class="st2" d="M1560.63,728.34c-29.72-70.26-72.26-133.35-126.44-187.53c-54.18-54.18-117.27-96.72-187.53-126.43
			C1173.91,383.6,1096.64,368,1017,368c-37.58,0-75.11,3.53-111.54,10.5c-29.24,5.59-58.33,13.52-86.47,23.55l-2.64,0.94l2.8,0.03
			c28.93,0.29,57.68,4.12,85.46,11.36C1060.29,454.96,1169,595.65,1169,756.5c0,194.92-158.58,353.5-353.5,353.5
			c-160.85,0-301.54-108.71-342.12-264.38c-7.24-27.78-11.06-56.54-11.36-85.47l-0.03-2.8l-0.94,2.64
			c-10.04,28.14-17.96,57.23-23.55,86.47C430.53,882.89,427,920.42,427,958c0,79.64,15.6,156.91,46.37,229.66
			c29.72,70.26,72.26,133.35,126.44,187.53c54.18,54.18,117.27,96.72,187.53,126.43C860.09,1532.4,937.36,1548,1017,1548
			s156.91-15.6,229.66-46.37c70.26-29.72,133.35-72.26,187.53-126.43c54.18-54.18,96.72-117.27,126.44-187.53
			C1591.4,1114.91,1607,1037.64,1607,958S1591.4,801.09,1560.63,728.34z M1017,1547c-79.51,0-156.64-15.58-229.27-46.29
			c-70.14-29.67-133.13-72.13-187.22-126.22c-54.09-54.09-96.55-117.08-126.22-187.22C443.58,1114.65,428,1037.51,428,958
			c0-37.52,3.53-74.98,10.48-111.35c5.41-28.28,13-56.42,22.58-83.69c0.51,28.07,4.32,55.95,11.35,82.91
			c19.42,74.48,63.7,141.85,124.71,189.69c30.54,23.95,64.5,42.6,100.91,55.43c37.68,13.27,77.21,20,117.47,20
			c195.47,0,354.5-159.03,354.5-354.5c0-40.26-6.73-79.78-20-117.47c-12.83-36.42-31.48-70.37-55.43-100.91
			c-47.84-61-115.21-105.29-189.69-124.71c-26.97-7.03-54.84-10.85-82.91-11.35c27.27-9.58,55.41-17.17,83.69-22.58
			C942.01,372.53,979.48,369,1017,369c79.51,0,156.64,15.58,229.27,46.29c70.14,29.67,133.13,72.13,187.22,126.22
			c54.09,54.09,96.55,117.08,126.22,187.22C1590.42,801.35,1606,878.49,1606,958s-15.58,156.65-46.29,229.27
			c-29.67,70.14-72.13,133.13-126.22,187.22c-54.09,54.09-117.08,96.55-187.22,126.22C1173.64,1531.42,1096.51,1547,1017,1547z"/>
		<line class="st4" x1="1350.38" y1="1401.44" x2="1350.38" y2="1401.44"/>
		<path class="st2" d="M1499.74,1011.02c-2.21,2.2-4.24,4.48-6.09,6.82c-1.23,1.56-2.39,3.16-3.46,4.78
			c-3.22,4.87-5.73,10.02-7.51,15.44c-0.29,0.9-0.57,1.79-0.82,2.7c-0.76,2.71-1.35,5.45-1.77,8.21c-0.56,3.68-0.84,7.41-0.86,11.16
			c-0.07,13.32,3.07,26.93,7.9,39.9c1.51,4.05,3.18,8.05,4.96,11.95c0.36,0.78,0.72,1.56,1.09,2.33c1.1,2.32,2.24,4.61,3.4,6.86
			c0.78,1.5,1.57,2.98,2.37,4.44c3.6,6.57,7.39,12.75,11.11,18.38c0.83,1.25,1.65,2.47,2.46,3.67
			c6.92,10.14,13.34,18.18,17.41,23.02l0.53,0.63l0,0l0.32-0.76c6.43-15.48,12.13-31.19,17.1-47.09c1.24-3.98,2.44-7.97,3.59-11.97
			c0.58-2,1.14-4,1.69-6.01c1.11-4.01,2.17-8.04,3.18-12.07c1.01-4.04,1.98-8.08,2.9-12.14c1.47-6.47,2.82-12.96,4.06-19.48
			c5.35-28.25,8.5-56.99,9.42-86.06l0.02-0.67l-0.65,0.17C1539.39,983.61,1515.2,995.6,1499.74,1011.02z M1568.57,1019.87
			c-0.46,4.12-0.96,8.22-1.51,12.32s-1.14,8.19-1.78,12.27c-1.92,12.24-4.25,24.4-6.99,36.46c-2.99,13.19-6.48,26.27-10.44,39.22
			c-5.1,16.65-11,33.08-17.69,49.26c-3.18-3.81-7.63-9.39-12.58-16.26c-0.23-0.33-0.47-0.66-0.71-0.99c-0.88-1.23-1.77-2.5-2.67-3.8
			c-0.2-0.29-0.4-0.58-0.59-0.87c-0.57-0.83-1.14-1.67-1.71-2.52c-0.27-0.4-0.54-0.81-0.81-1.22c-3.87-5.85-7.84-12.3-11.58-19.18
			c-13.36-24.56-23.88-54.53-17.22-81.47c0.39-1.58,0.84-3.15,1.35-4.71c1.46-4.45,3.42-8.71,5.86-12.78
			c1.24-2.06,2.6-4.08,4.09-6.04c14.41-19,40.57-33.48,78.1-43.2C1571.21,990.95,1570.17,1005.46,1568.57,1019.87z"/>
		<path class="st2" d="M1178.09,619.52c0.59,1.56,1.17,3.12,1.74,4.68l0.2,0.54l187.42-98.08l-0.59-0.48
			c-9.09-7.38-18.39-14.46-27.87-21.22c-6.32-4.51-12.73-8.88-19.22-13.11c-9.73-6.35-19.65-12.38-29.75-18.09
			c-3.36-1.9-6.75-3.77-10.15-5.61c-23.82-12.83-48.57-23.91-74.12-33.16c-17.71-6.41-35.69-11.9-53.88-16.45
			c-10.91-2.73-21.91-5.13-32.97-7.18c-3.93-0.73-7.87-1.42-11.82-2.07c-5.92-0.97-11.87-1.84-17.83-2.62
			c-1.99-0.26-3.98-0.51-5.97-0.74c-3.98-0.47-7.97-0.91-11.96-1.29c-17.98-1.75-36.1-2.63-54.32-2.63
			c-13.03,0-26.31,0.47-39.46,1.4l-1.95,0.14l1.77,0.82c27.4,12.6,53.07,28.25,76.71,46.76c3.38,2.64,6.71,5.34,10.01,8.1
			c8.78,7.36,17.26,15.12,25.43,23.29c6.67,6.67,13.07,13.55,19.2,20.63c4.98,5.75,9.78,11.63,14.39,17.64
			c20,26.03,36.55,54.44,49.44,84.9C1174.46,610.21,1176.32,614.85,1178.09,619.52z M1017,403c3.95,0,7.9,0.04,11.85,0.13
			c122.34,2.65,241.48,46.21,336.78,123.35l-185.06,96.85c-2.22-6.08-4.61-12.14-7.11-18.05c-19.57-46.26-47.58-87.81-83.25-123.48
			c-32.28-32.28-69.5-58.35-110.66-77.53C992.04,403.42,1004.63,403,1017,403z"/>
		<path class="st2" d="M1434.52,1324.78l0.39-0.45c34.13-38.89,62.64-82.21,84.73-128.76l0.22-0.46l-0.47-0.21
			c-0.78-0.35-1.51-0.77-2.19-1.26c-0.68-0.49-1.31-1.05-1.89-1.67c-0.04-0.04-0.09-0.09-0.15-0.16
			c-1.82-1.98-13.11-14.54-25.48-33.23c-2.59-3.92-5.24-8.11-7.85-12.52c-17.64-29.81-33.92-70.04-25.06-108.08
			c0.33-1.41,0.69-2.81,1.09-4.22c0.33-1.15,0.68-2.3,1.05-3.44c0.8-2.43,1.69-4.82,2.69-7.16c14.44-33.94,49.75-58.25,105.13-72.36
			c1.91-0.49,3.84-0.96,5.8-1.42l0.39-0.09l-0.01-0.4c-0.41-25.32-2.55-50.73-6.38-75.68c-0.55-3.56-1.13-7.12-1.74-10.66
			l-0.08-0.47l-0.48,0.06c-128.76,16.83-208.1,60.49-235.83,129.79c-4.51,11.26-7.67,23.26-9.5,35.95
			c-0.91,6.35-1.49,12.86-1.74,19.55c-0.08,2.23-0.13,4.48-0.13,6.74c-0.01,3.4,0.06,6.84,0.22,10.31
			c0.47,10.44,1.7,21.23,3.69,32.37c2.5,14.04,6.21,28.64,11.09,43.73c0.7,2.16,1.42,4.32,2.16,6.5c2.24,6.53,4.69,13.14,7.35,19.84
			c4.44,11.16,9.47,22.54,15.08,34.12c11.32,23.36,23.66,44.79,35.14,63.05c3.83,6.09,7.56,11.83,11.13,17.17
			c0.46,0.69,0.92,1.37,1.37,2.05c1.36,2.03,2.7,3.99,4.01,5.9c2.18,3.17,4.28,6.17,6.27,8.98c1.2,1.69,2.36,3.3,3.48,4.85
			c1.12,1.55,2.2,3.03,3.23,4.43c6.2,8.43,10.79,14.24,12.89,16.86L1434.52,1324.78z M1563.89,863.18c0.61,3.5,1.18,7.02,1.72,10.54
			c1.02,6.66,1.9,13.35,2.68,20.06c0.09,0.8,0.18,1.6,0.27,2.4c0.48,4.34,0.92,8.69,1.3,13.04c1.15,13.06,1.84,26.18,2.06,39.27
			c-51,12.11-85.87,32.48-104.04,60.72c-2.1,3.26-3.97,6.62-5.62,10.09c-1.65,3.47-3.08,7.04-4.28,10.71
			c-24.2,73.85,53.3,159.05,56.62,162.64c0.28,0.31,0.58,0.6,0.88,0.87c0.92,0.83,1.94,1.52,3.06,2.07
			c-21.94,46.12-50.18,89.05-83.97,127.63c-0.78-0.97-1.82-2.29-3.09-3.92c-0.85-1.09-1.8-2.32-2.84-3.69
			c-0.52-0.68-1.07-1.4-1.64-2.15c-1.7-2.25-3.61-4.8-5.68-7.63c-13.82-18.87-35.19-50.15-55-87.86
			c-2.97-5.66-5.91-11.46-8.78-17.38c-40.54-83.67-50.03-153.75-28.2-208.31C1356.88,923.44,1435.79,880,1563.89,863.18z"/>
		<path class="st2" d="M1178.42,1312.23c-7.39-2.84-14.66-5.48-21.8-7.92c-19.04-6.51-37.17-11.58-54.35-15.22
			c-59.32-12.54-107.66-7.99-143.68,13.55c-35.99,21.52-60.01,59.61-71.38,113.22c-8.74,41.17-6.27,76.36-6.25,76.71
			c0.1,1.33-0.02,2.67-0.35,3.98l-0.12,0.48l0.48,0.12c4.26,1.08,8.55,2.1,12.85,3.08c12.9,2.93,25.93,5.4,38.9,7.38l0.34,0.05
			l0.17-0.3c12.17-21.2,40.26-59.23,91.7-75.82c57.07-18.41,124.87-4.52,201.51,41.29l0.21,0.13l0.23-0.09
			c44.33-18.13,86.28-42.05,124.69-71.08l0.58-0.44l-0.62-0.38C1288.09,1361.79,1230.17,1332.11,1178.42,1312.23z M1350.38,1401.44
			c-12.51,9.43-25.39,18.31-38.61,26.63c-4.41,2.77-8.85,5.48-13.33,8.13c-23.03,13.61-47.01,25.54-71.72,35.66
			c-2.4-1.43-4.79-2.83-7.18-4.21c-52.43-30.15-100.66-45.18-144.09-44.97c-12.83,0.06-25.24,1.48-37.21,4.21
			c-4.61,1.05-9.16,2.27-13.63,3.72c-17.71,5.71-32.66,13.95-45.17,23.17c-1.14,0.84-2.25,1.68-3.35,2.54
			c-21.93,17.06-35.86,36.91-43.56,50.27c-3.22-0.49-6.44-1.03-9.66-1.58c-13.79-2.37-27.6-5.28-41.18-8.69
			c0.27-1.27,0.36-2.55,0.27-3.82c-0.02-0.26-1.35-19.33,1.42-45.75c0.29-2.73,0.62-5.54,1-8.42c0.31-2.36,0.66-4.77,1.04-7.21
			c0.38-2.44,0.8-4.92,1.26-7.43c0.46-2.51,0.96-5.05,1.51-7.62c0.35-1.67,0.72-3.32,1.1-4.95c0.37-1.58,0.74-3.16,1.13-4.71
			c12.07-48.26,35.15-82.85,68.69-102.9c26.08-15.6,58.71-22.22,97.34-19.84c2.58,0.16,5.18,0.36,7.81,0.6
			c0.73,0.07,1.47,0.14,2.21,0.21c4.04,0.4,8.13,0.89,12.29,1.48c7.57,1.07,15.34,2.43,23.31,4.12
			c29.96,6.33,62.8,17.07,98.33,32.12c5.08,2.15,10.21,4.39,15.39,6.71c7.78,3.49,15.68,7.17,23.7,11.06
			c2.17,1.05,4.35,2.12,6.54,3.2C1278.88,1359.36,1313.7,1378.81,1350.38,1401.44C1350.38,1401.44,1350.38,1401.44,1350.38,1401.44
			C1350.38,1401.44,1350.38,1401.44,1350.38,1401.44z"/>
		<path class="st2" d="M1415.88,1341.48c-0.33-0.39-2.04-2.47-4.84-6.05c-0.47-0.6-0.96-1.23-1.49-1.91
			c-2.1-2.71-4.66-6.07-7.6-10.03c-1.47-1.98-3.02-4.1-4.66-6.37c-2.87-3.97-5.99-8.37-9.29-13.16c-1.89-2.74-3.84-5.61-5.84-8.6
			c-13.51-20.18-29.3-45.9-43.93-74.98c-5.13-10.19-9.84-20.27-14.13-30.2c-6.44-14.9-11.92-29.5-16.44-43.74
			c-1.51-4.75-2.9-9.45-4.19-14.11c-2.58-9.32-4.73-18.48-6.43-27.45c-1.91-10.03-3.29-19.99-4.09-29.61l-0.03-0.39l-197.31-32.56
			l-0.58-0.1v219.99l0.41,0.07c75.95,13.64,169.21,54.8,277.2,122.34l0.31,0.19l0.28-0.23c15.34-12.83,30.16-26.64,44.04-41.05
			l0.36-0.37l-0.39-0.35C1416.66,1342.35,1416.24,1341.92,1415.88,1341.48z M1395.02,1363.99c-1.81,1.69-3.63,3.36-5.46,5.02
			c-5.49,4.98-11.08,9.85-16.73,14.59c-23.57-14.74-46.45-28.22-68.59-40.43c-9.49-5.23-18.85-10.24-28.07-15
			c-36.89-19.07-71.61-34.4-104.02-45.92c-8.1-2.88-16.06-5.52-23.87-7.93c-5.21-1.6-10.35-3.1-15.43-4.49
			c-2.54-0.7-5.06-1.36-7.57-2.01c-5.01-1.28-9.96-2.46-14.84-3.53s-9.69-2.04-14.44-2.89v-217.98l195.96,32.33
			c0.81,9.53,2.18,19.39,4.07,29.32c5.13,26.97,14.23,55.62,27.13,85.5c4.3,9.96,9.02,20.05,14.16,30.27
			c34.72,69.01,76.04,119.18,77.78,121.28c0.31,0.37,0.65,0.73,1.05,1.11C1409.32,1350.31,1402.26,1357.24,1395.02,1363.99z"/>
		<path class="st2" d="M753.9,1139.14c-2.21-0.35-4.42-0.73-6.62-1.12c-5.29-0.94-10.54-1.98-15.75-3.13l-0.06-0.01h0l-0.06,0
			c-36.62,0.75-63.37,11.81-79.5,32.85c-1.41,1.84-2.73,3.74-3.98,5.7c-4.08,6.43-7.29,13.48-9.74,21
			c-19.29,59.04,7.76,146.57,21.27,183.79c0.49,1.35,0.97,2.64,1.42,3.86c0.48,1.3,0.94,2.52,1.37,3.65l0.05,0.12l0.1,0.08
			c1.94,1.61,3.89,3.21,5.85,4.79c3.68,2.97,7.39,5.89,11.14,8.76c26.25,20.12,54.28,37.9,83.58,53.01l0.7,0.36l10.65-310.54
			l0.02-0.46l-0.46-0.05C767.21,1141.09,760.54,1140.2,753.9,1139.14z M663.14,1385.24c-0.43-1.13-0.89-2.35-1.37-3.65
			c-4.82-12.97-11.99-33.88-18.03-58.16c-0.6-2.43-1.2-4.89-1.77-7.38c-0.58-2.49-1.14-5.01-1.69-7.55
			c-0.54-2.54-1.07-5.11-1.58-7.7c-2.78-14.24-4.9-29.07-5.79-43.75c-0.32-5.34-0.48-10.66-0.46-15.92
			c0.11-19.72,2.9-38.64,9.84-54.82c1.39-3.24,2.94-6.36,4.67-9.36c1.73-3,3.64-5.88,5.74-8.61c15.93-20.78,42.4-31.7,78.67-32.46
			c10.31,2.28,20.83,4.15,31.37,5.58c3.52,0.48,7.04,0.9,10.55,1.28l-10.58,308.5C727.38,1432.95,693.87,1410.74,663.14,1385.24z"/>
		<path class="st2" d="M1292.12,1048.84c0.61-23.8,5-46.08,13.06-66.22c0.49-1.22,0.99-2.43,1.5-3.63c0.84-1.96,1.71-3.89,2.61-5.81
			c27.16-57.57,85.76-98.19,174.76-121.24c2.97-0.77,5.97-1.52,9-2.25c3.73-0.9,7.52-1.77,11.36-2.6c3.84-0.84,7.72-1.65,11.66-2.43
			c13.78-2.73,28.19-5.09,43.22-7.09l0.54-0.07l-0.12-0.53c-2.56-11.49-5.51-22.97-8.82-34.33c-1.99-6.82-4.1-13.59-6.34-20.28
			l-0.11-0.34H1203.5c-0.22,0-0.44-0.02-0.65-0.03l-0.67-0.04l-0.03,0.5c-2.83,43.14-12.79,85.16-29.61,124.91
			c-17.12,40.47-40.81,77.46-70.42,109.95l-0.62,0.68l190.61,31.45L1292.12,1048.84z M1103.48,1017.28
			c5.51-6.08,10.82-12.31,15.92-18.69c22.09-27.66,40.22-58.12,54.07-90.86c12.79-30.24,21.63-61.8,26.38-94.15
			c0.32-2.16,0.62-4.32,0.9-6.48c1.04-7.99,1.83-16.03,2.37-24.1c0.13,0.01,0.26,0.01,0.39,0.01h340.23
			c1.46,4.39,2.87,8.81,4.23,13.25c4.06,13.32,7.64,26.86,10.67,40.4c-2.15,0.29-4.28,0.58-6.41,0.88c-4.25,0.6-8.44,1.24-12.58,1.9
			c-89.1,14.28-154.71,42.34-196.13,83.78c-3.85,3.85-7.5,7.83-10.93,11.91c-1.72,2.04-3.38,4.11-4.99,6.22
			c-9.67,12.6-17.45,26.25-23.32,40.91c-0.5,1.26-0.99,2.52-1.46,3.79c-7.11,19.08-11.03,39.98-11.65,62.2L1103.48,1017.28z"/>
		<path class="st2" d="M622.77,1346.29c-13.69-48.45-24.02-110.04-8.66-158.55c1.59-5.02,3.45-9.9,5.61-14.6
			c3.36-7.31,7.43-14.2,12.32-20.59c0.71-0.93,1.44-1.84,2.18-2.74c0.69-0.84,1.4-1.67,2.12-2.49c10.8-12.27,24.46-21.62,40.7-27.86
			l1.22-0.47l-1.22-0.47c-0.83-0.32-1.66-0.64-2.49-0.97c-2.33-0.91-4.63-1.83-6.87-2.76c-1.02-0.42-2.02-0.84-3.02-1.26
			c-46.15-19.52-87.58-47.46-123.17-83.04c-32.66-32.66-58.95-70.39-78.15-112.14l-0.82-1.77l-0.14,1.95
			c-0.93,13.15-1.4,26.43-1.4,39.46c0,2.33,0.01,4.66,0.04,6.99c0.55,44.8,6.38,88.8,17.4,131.56c1.57,6.11,3.25,12.19,5.04,18.25
			c5.85,19.82,12.82,39.36,20.92,58.57c11.3,26.79,24.58,52.49,39.77,76.98c2.34,3.77,4.72,7.51,7.15,11.22
			c7.73,11.83,15.93,23.36,24.56,34.59c14.4,18.71,30.04,36.58,46.88,53.52l1.38,1.38l-0.54-1.88
			C623.32,1348.23,623.04,1347.26,622.77,1346.29z M474.77,943.28c17.66,32.21,39.79,61.7,66.02,87.93
			c35.67,35.67,77.22,63.68,123.48,83.25c3.61,1.53,7.37,3.05,11.21,4.53c-18.1,7.18-32.98,18.26-44.23,32.95
			c-5.48,7.15-9.95,14.95-13.53,23.23c-0.8,1.84-1.55,3.71-2.26,5.59c-0.71,1.89-1.38,3.8-2,5.73c-0.63,1.93-1.21,3.88-1.76,5.85
			c-0.82,2.96-1.55,5.96-2.19,8.99c-3.08,14.48-4.24,29.82-4.01,45.42c0.03,2.12,0.1,4.25,0.18,6.39
			c0.23,5.81,0.63,11.64,1.19,17.46c0.01,0.08,0.02,0.15,0.02,0.23c2.62,26.73,8.53,53.31,15.2,76.75
			c-29.88-30.28-55.87-63.39-77.73-98.69c-1.05-1.69-2.09-3.39-3.12-5.09c-1.44-2.39-2.87-4.78-4.27-7.19
			c-6.03-10.33-11.72-20.84-17.05-31.51c-0.03-0.07-0.06-0.13-0.1-0.2c-3.3-6.61-6.45-13.28-9.48-20.01
			c-1.24-2.77-2.47-5.55-3.66-8.33c-1.61-3.74-3.17-7.49-4.69-11.26c-3.04-7.54-5.92-15.15-8.63-22.83
			c-1.35-3.84-2.66-7.69-3.93-11.56c-0.75-2.28-1.48-4.58-2.2-6.87c-2.49-7.94-4.79-15.93-6.91-23.99c-0.25-0.93-0.49-1.87-0.73-2.8
			c-0.83-3.23-1.64-6.46-2.41-9.71c-0.31-1.28-0.61-2.56-0.9-3.84c-8.93-38.58-13.75-78.37-14.24-118.83
			c-0.03-2.29-0.04-4.58-0.04-6.87c0-12.37,0.42-24.96,1.26-37.45C466.86,928.27,470.69,935.85,474.77,943.28z"/>
		<path class="st2" d="M945.65,1281.25c1.04-0.62,2.09-1.23,3.15-1.83c30.25-17.15,67.13-24.42,109.82-21.67
			c3.57,0.23,7.18,0.52,10.83,0.89l0.55,0.06v-209.96l-0.83,0.72c-30.72,26.66-65.32,48.23-102.83,64.09
			c-47.78,20.21-98.53,30.46-150.84,30.46c-5.15,0-10.44-0.11-15.72-0.32l-0.5-0.02l-11,320.75l-0.01,0.33l0.31,0.14
			c2.69,1.22,5.39,2.41,8.11,3.59c2.38,1.03,4.76,2.04,7.16,3.04c16.76,6.98,33.95,13.16,51.29,18.45l0.67,0.2h0l-0.03-0.7
			c-0.44-11.6-0.65-42.42,6.82-78.06C875.21,1351.25,903.93,1306.24,945.65,1281.25z M859.75,1420.93
			c-0.56,3.19-1.07,6.33-1.52,9.41c-0.37,2.5-0.7,4.96-1,7.37c-2.89,23.31-2.78,42.15-2.47,51.09
			c-22.27-6.82-44.29-15.13-65.46-24.69l10.95-319.41c2.56,0.1,5.13,0.17,7.67,0.22c2.55,0.05,5.08,0.07,7.58,0.07
			c52.44,0,103.32-10.27,151.23-30.54c32.62-13.8,63.04-31.89,90.62-53.88c3.94-3.14,7.82-6.36,11.65-9.66v206.66
			c-4.58-0.46-9.09-0.8-13.54-1.04c-4.45-0.24-8.84-0.36-13.16-0.38c-5.32-0.02-10.53,0.14-15.65,0.45
			c-1.81,0.11-3.62,0.23-5.41,0.39c-5.28,0.45-10.45,1.09-15.51,1.9c-0.18,0.03-0.37,0.05-0.55,0.08
			c-8.08,1.32-15.87,3.11-23.37,5.35c-1.5,0.45-2.99,0.92-4.46,1.4c-2.95,0.97-5.86,2.02-8.71,3.14c-0.14,0.05-0.28,0.1-0.41,0.16
			c-4.58,1.81-9.04,3.81-13.37,6c-0.04,0.02-0.07,0.04-0.11,0.05c-1.3,0.66-2.58,1.33-3.85,2.02c-1.94,1.05-3.86,2.14-5.76,3.27
			c-41.97,25.14-70.85,70.38-83.52,130.82C860.93,1414.49,860.31,1417.74,859.75,1420.93z"/>
		<path class="st2" d="M1189.59,647.91c-0.19,0.08-0.4,0.17-0.61,0.24c-0.23,0.09-0.48,0.17-0.74,0.25l-0.47,0.15l0.14,0.47
			c10.01,34.7,15.09,70.86,15.09,107.48v0.5h332.41l-0.27-0.68c-31.57-80.82-82.62-154.31-147.63-212.53l-0.37-0.33l-0.33,0.37
			c-0.25,0.28-0.52,0.55-0.79,0.81c-0.82,0.77-1.73,1.42-2.72,1.93l-193,101C1190.07,647.69,1189.83,647.8,1189.59,647.91z
			 M1533.94,756H1204c-0.03-21.88-1.86-43.6-5.48-64.94c-0.52-3.05-1.07-6.09-1.66-9.12c-0.86-4.41-1.79-8.81-2.8-13.18
			c-1.01-4.37-2.1-8.73-3.26-13.06c-0.58-2.17-1.18-4.33-1.8-6.48c0.66-0.23,1.23-0.47,1.76-0.75l193-101
			c1.27-0.67,2.43-1.54,3.45-2.6C1451.75,602.76,1502.47,675.75,1533.94,756z"/>
		<path class="st2" d="M1032.95,1455.24c-5.65,1.81-10.99,3.94-16.01,6.32c-3.01,1.43-5.91,2.95-8.7,4.54
			c-1.86,1.06-3.67,2.16-5.44,3.28c-17.64,11.23-30.5,25.3-39.35,37.48c-0.88,1.22-1.73,2.42-2.54,3.59l-0.48,0.7l0.84,0.08
			c18.43,1.84,37.17,2.78,55.72,2.78c9.52,0,19.02-0.24,28.48-0.72c3.79-0.19,7.57-0.42,11.34-0.69c3.78-0.27,7.55-0.57,11.31-0.92
			c1.88-0.17,3.76-0.35,5.64-0.55c20.67-2.1,41.16-5.36,61.41-9.76c3.68-0.8,7.35-1.64,11.02-2.51c5.5-1.31,10.97-2.71,16.43-4.19
			c2.73-0.74,5.45-1.5,8.17-2.29c8.15-2.35,16.26-4.89,24.31-7.62l1.09-0.37l-1.01-0.54
			C1132.91,1450.36,1078.33,1440.74,1032.95,1455.24z M967.52,1503.12c0.96-1.23,1.96-2.48,3-3.73c0.98-1.17,1.99-2.35,3.04-3.54
			c1.21-1.36,2.46-2.73,3.76-4.1c1.98-2.08,4.08-4.16,6.29-6.22c5.53-5.14,11.78-10.15,18.8-14.7c1.41-0.91,2.84-1.81,4.31-2.68
			c2.54-1.51,5.18-2.97,7.91-4.35c0.09-0.05,0.19-0.09,0.29-0.14c5.69-2.85,11.79-5.38,18.34-7.47c4.67-1.49,9.45-2.71,14.32-3.69
			c8.52-1.71,17.34-2.65,26.44-2.79c1.3-0.02,2.61-0.02,3.92-0.01c34.66,0.33,73.4,11.85,115.75,34.47
			c-33.29,11.21-67.48,19.18-102.24,23.86c-2.32,0.31-4.64,0.61-6.96,0.89c-5.57,0.68-11.16,1.27-16.76,1.78
			c-3.73,0.34-7.47,0.64-11.22,0.91c-13.11,0.93-26.28,1.39-39.5,1.39c-18.23,0-36.65-0.9-54.78-2.69
			C963.83,1507.99,965.6,1505.58,967.52,1503.12z"/>
	</g>
	<path class="st5" d="M323.18,659.81c5.02-32.69,17.37-63.83,36.33-90.93c42.71-61.07,127.86-155.94,209.99-89.39
		c83.59,67.74,16.6,207.65-27.37,280.54c-24.44,40.52-61.32,72.3-105.49,89.3C371.19,874.54,291.2,868.08,323.18,659.81z"/>
</g>
<path class="st6" d="M1347.5,1056.76V938.58c0-18.74-15.19-33.93-33.93-33.93H727.93c-18.74,0-33.93,15.19-33.93,33.93v118.18
	c0,18.74,15.19,33.93,33.93,33.93h585.64C1332.31,1090.69,1347.5,1075.5,1347.5,1056.76z"/>
</svg>
