<?xml version="1.0" encoding="utf-8"?>
<!-- Generator: Adobe Illustrator 24.1.2, SVG Export Plug-In . SVG Version: 6.00 Build 0)  -->
<svg version="1.1" id="Capa_1" xmlns="http://www.w3.org/2000/svg" xmlns:xlink="http://www.w3.org/1999/xlink" x="0px" y="0px"
	 viewBox="0 0 1965 378" style="enable-background:new 0 0 1965 378;" xml:space="preserve">
<style type="text/css">
	.st0{fill:#DDA355;}
</style>
<g>
	<path class="st0" d="M276.7,362.82c0,2-0.37,3.67-1.09,5.03c-0.73,1.36-2.45,2.5-5.17,3.4c-2.72,0.91-6.71,1.54-11.97,1.9
		c-5.26,0.36-12.43,0.54-21.5,0.54c-7.62,0-13.7-0.18-18.23-0.54c-4.54-0.37-8.12-1.05-10.75-2.04c-2.63-1-4.49-2.27-5.58-3.81
		c-1.09-1.54-2-3.4-2.72-5.58l-31.57-78.65c-3.81-8.89-7.53-16.78-11.16-23.68c-3.63-6.89-7.67-12.65-12.11-17.28
		c-4.45-4.63-9.57-8.12-15.38-10.48c-5.81-2.36-12.52-3.54-20.14-3.54H87.02v134.17c0,1.82-0.59,3.45-1.77,4.9
		c-1.18,1.45-3.13,2.63-5.85,3.54c-2.72,0.91-6.35,1.63-10.89,2.18c-4.54,0.54-10.34,0.82-17.42,0.82c-6.9,0-12.65-0.27-17.28-0.82
		c-4.63-0.54-8.3-1.27-11.02-2.18c-2.72-0.91-4.63-2.08-5.71-3.54c-1.09-1.45-1.63-3.08-1.63-4.9V42.51
		c0-7.98,2.04-13.74,6.12-17.28c4.08-3.54,9.12-5.31,15.1-5.31h91.17c9.25,0,16.87,0.18,22.86,0.54c5.99,0.37,11.43,0.82,16.33,1.36
		c14.15,2,26.9,5.44,38.24,10.34c11.34,4.9,20.96,11.29,28.85,19.19s13.92,17.24,18.1,28.03c4.17,10.8,6.26,23.18,6.26,37.15
		c0,11.8-1.5,22.54-4.49,32.25c-2.99,9.71-7.39,18.37-13.2,25.99c-5.81,7.62-12.97,14.24-21.5,19.87
		c-8.53,5.63-18.23,10.16-29.12,13.61c5.26,2.54,10.21,5.63,14.83,9.25c4.63,3.63,8.98,8.03,13.06,13.2
		c4.08,5.17,7.93,11.07,11.57,17.69c3.63,6.62,7.17,14.11,10.61,22.45l29.66,69.4c2.72,6.9,4.53,11.93,5.44,15.1
		C276.25,358.52,276.7,361.01,276.7,362.82z M184.45,123.88c0-11.61-2.63-21.41-7.89-29.39c-5.26-7.98-13.88-13.61-25.85-16.87
		c-3.63-0.91-7.76-1.63-12.38-2.18c-4.63-0.54-11.02-0.82-19.19-0.82H87.02v99.88h36.47c10.16,0,19.05-1.22,26.67-3.67
		c7.62-2.45,13.97-5.89,19.05-10.34c5.08-4.44,8.89-9.75,11.43-15.92C183.18,138.4,184.45,131.5,184.45,123.88z"/>
	<path class="st0" d="M640.56,191.92c0,29.21-3.63,55.34-10.89,78.38c-7.26,23.04-18.06,42.59-32.38,58.65
		c-14.33,16.06-32.07,28.3-53.2,36.74c-21.14,8.44-45.58,12.65-73.34,12.65c-27.4,0-51.3-3.58-71.71-10.75s-37.42-18.1-51.03-32.79
		c-13.61-14.7-23.81-33.38-30.62-56.06c-6.8-22.68-10.21-49.53-10.21-80.55c0-28.48,3.63-54.11,10.89-76.88
		c7.25-22.77,18.05-42.13,32.39-58.1c14.33-15.96,32.07-28.21,53.2-36.74c21.13-8.53,45.67-12.79,73.61-12.79
		c26.67,0,50.21,3.54,70.62,10.61c20.41,7.08,37.46,17.96,51.16,32.66c13.7,14.7,24.04,33.25,31.02,55.65
		C637.06,135,640.56,161.44,640.56,191.92z M565.45,195.73c0-18.51-1.45-35.33-4.35-50.48c-2.9-15.15-7.85-28.12-14.83-38.92
		c-6.99-10.79-16.29-19.14-27.89-25.04c-11.61-5.89-26.13-8.84-43.54-8.84c-17.6,0-32.3,3.31-44.09,9.93
		c-11.8,6.63-21.32,15.47-28.57,26.53c-7.26,11.07-12.38,24-15.38,38.78c-2.99,14.79-4.49,30.44-4.49,46.94
		c0,19.23,1.45,36.51,4.35,51.84c2.9,15.33,7.8,28.44,14.7,39.32c6.89,10.89,16.15,19.19,27.76,24.9
		c11.61,5.71,26.21,8.57,43.81,8.57c17.6,0,32.29-3.27,44.09-9.8c11.79-6.53,21.32-15.42,28.57-26.67
		c7.25-11.25,12.38-24.36,15.38-39.32S565.45,212.6,565.45,195.73z"/>
	<path class="st0" d="M991.08,347.04c0,4.18-0.73,7.89-2.18,11.16c-1.45,3.27-3.4,5.99-5.85,8.16c-2.45,2.18-5.35,3.77-8.71,4.76
		c-3.36,1-6.76,1.5-10.21,1.5h-30.48c-6.35,0-11.84-0.63-16.46-1.91c-4.63-1.27-8.89-3.58-12.79-6.94
		c-3.9-3.35-7.67-7.89-11.29-13.61c-3.63-5.72-7.71-13.11-12.25-22.18l-87.63-164.65c-5.08-9.8-10.25-20.36-15.51-31.7
		c-5.26-11.34-9.98-22.36-14.15-33.06h-0.54c0.72,13.06,1.27,26.08,1.63,39.05c0.36,12.97,0.54,26.35,0.54,40.14v184.24
		c0,1.82-0.5,3.45-1.5,4.9c-1,1.45-2.72,2.68-5.17,3.67c-2.45,1-5.76,1.77-9.93,2.31c-4.18,0.54-9.52,0.82-16.06,0.82
		c-6.35,0-11.61-0.27-15.78-0.82c-4.18-0.54-7.44-1.31-9.8-2.31c-2.36-1-3.99-2.22-4.9-3.67c-0.91-1.45-1.36-3.08-1.36-4.9V45.51
		c0-8.53,2.49-14.92,7.48-19.19c4.99-4.26,11.11-6.4,18.37-6.4h38.37c6.89,0,12.7,0.59,17.42,1.77c4.72,1.18,8.93,3.13,12.65,5.85
		c3.72,2.72,7.21,6.49,10.48,11.29c3.27,4.81,6.62,10.75,10.07,17.83l68.58,128.72c3.99,7.8,7.93,15.47,11.84,23
		c3.9,7.53,7.66,15.06,11.29,22.59c3.63,7.53,7.17,14.93,10.61,22.18c3.44,7.26,6.8,14.52,10.07,21.77h0.27
		c-0.54-12.7-0.95-25.94-1.22-39.73c-0.27-13.79-0.41-26.94-0.41-39.46V30.54c0-1.81,0.54-3.44,1.63-4.9
		c1.09-1.45,2.9-2.72,5.44-3.81c2.54-1.09,5.89-1.86,10.07-2.31c4.17-0.45,9.52-0.68,16.06-0.68c6.17,0,11.34,0.23,15.51,0.68
		c4.17,0.46,7.39,1.22,9.66,2.31c2.27,1.09,3.85,2.36,4.76,3.81c0.91,1.45,1.36,3.09,1.36,4.9V347.04z"/>
	<path class="st0" d="M1360.37,190.83c0,32.3-4.22,59.92-12.65,82.87c-8.44,22.95-20.55,41.68-36.33,56.2
		c-15.78,14.52-34.97,25.17-57.56,31.98c-22.59,6.8-49.49,10.21-80.69,10.21h-84.09c-5.99,0-11.02-1.77-15.1-5.31
		c-4.08-3.54-6.12-9.3-6.12-17.28V42.51c0-7.98,2.04-13.74,6.12-17.28c4.08-3.54,9.12-5.31,15.1-5.31h90.35
		c31.39,0,58.01,3.67,79.87,11.02c21.86,7.35,40.28,18.23,55.24,32.66s26.35,32.25,34.15,53.48
		C1356.47,138.31,1360.37,162.89,1360.37,190.83z M1286.35,193.28c0-16.69-1.95-32.2-5.85-46.54c-3.9-14.33-10.16-26.76-18.78-37.28
		c-8.62-10.52-19.69-18.73-33.2-24.63c-13.52-5.89-31.25-8.84-53.2-8.84h-36.19v239.48h37.28c19.59,0,36.1-2.54,49.53-7.62
		c13.42-5.08,24.63-12.74,33.61-23c8.98-10.25,15.69-23,20.14-38.24C1284.12,231.38,1286.35,213.6,1286.35,193.28z"/>
	<path class="st0" d="M1694.56,345.41c2.18,6.53,3.54,11.7,4.08,15.51s-0.18,6.67-2.18,8.57c-2,1.91-5.54,3.08-10.61,3.54
		c-5.08,0.45-12.07,0.68-20.96,0.68c-9.25,0-16.46-0.14-21.64-0.41c-5.17-0.27-9.12-0.82-11.84-1.63c-2.72-0.82-4.63-1.95-5.72-3.4
		c-1.09-1.45-2-3.35-2.72-5.71l-23.68-70.76h-132.26l-22.32,68.85c-0.73,2.54-1.68,4.67-2.86,6.4c-1.18,1.73-3.09,3.09-5.72,4.08
		c-2.63,1-6.35,1.68-11.16,2.04c-4.81,0.36-11.12,0.54-18.91,0.54c-8.35,0-14.88-0.27-19.59-0.82c-4.72-0.54-7.99-1.86-9.8-3.95
		c-1.82-2.08-2.45-5.03-1.9-8.84s1.9-8.89,4.08-15.24l108.58-312.42c1.09-3.08,2.36-5.58,3.81-7.48c1.45-1.9,3.76-3.35,6.94-4.35
		c3.17-1,7.57-1.63,13.2-1.91c5.62-0.27,13.06-0.41,22.32-0.41c10.7,0,19.23,0.14,25.58,0.41c6.35,0.27,11.29,0.91,14.83,1.91
		c3.54,1,6.08,2.5,7.62,4.49c1.54,2,2.86,4.72,3.95,8.16L1694.56,345.41z M1532.91,87.14h-0.27l-49.8,149.68h99.88L1532.91,87.14z"
		/>
	<path class="st0" d="M1952.55,266.48c0,18.51-3.45,34.74-10.34,48.71c-6.9,13.97-16.24,25.63-28.03,34.97
		c-11.8,9.35-25.58,16.38-41.37,21.09s-32.66,7.08-50.62,7.08c-12.16,0-23.45-1-33.88-2.99c-10.44-2-19.64-4.4-27.62-7.21
		c-7.99-2.81-14.65-5.76-20-8.84c-5.35-3.08-9.21-5.8-11.57-8.16c-2.36-2.36-4.04-5.76-5.03-10.21c-1-4.44-1.5-10.84-1.5-19.19
		c0-5.62,0.18-10.34,0.54-14.15c0.36-3.81,0.95-6.89,1.77-9.25c0.82-2.36,1.91-4.04,3.27-5.03c1.36-1,2.95-1.5,4.76-1.5
		c2.54,0,6.12,1.5,10.75,4.49c4.63,2.99,10.57,6.31,17.83,9.93c7.25,3.63,15.92,6.94,25.99,9.93c10.07,2.99,21.72,4.49,34.97,4.49
		c8.71,0,16.51-1.04,23.4-3.13c6.89-2.08,12.74-5.03,17.55-8.84c4.81-3.81,8.48-8.53,11.02-14.15c2.54-5.62,3.81-11.88,3.81-18.78
		c0-7.98-2.18-14.83-6.53-20.55s-10.03-10.79-17.01-15.24c-6.99-4.44-14.93-8.62-23.81-12.52c-8.89-3.9-18.05-8.03-27.49-12.38
		c-9.44-4.35-18.6-9.3-27.49-14.83c-8.89-5.53-16.83-12.15-23.81-19.87c-6.99-7.71-12.65-16.83-17.01-27.35
		c-4.35-10.52-6.53-23.13-6.53-37.83c0-16.87,3.13-31.7,9.39-44.5s14.7-23.4,25.31-31.84c10.61-8.44,23.13-14.74,37.56-18.91
		c14.42-4.17,29.71-6.26,45.86-6.26c8.34,0,16.69,0.64,25.04,1.91c8.34,1.27,16.15,2.99,23.4,5.17c7.25,2.18,13.7,4.63,19.32,7.35
		c5.62,2.72,9.34,4.99,11.16,6.8c1.81,1.82,3.04,3.36,3.67,4.63c0.63,1.27,1.18,2.95,1.63,5.03c0.45,2.09,0.77,4.72,0.95,7.89
		c0.18,3.18,0.27,7.12,0.27,11.84c0,5.26-0.14,9.71-0.41,13.33c-0.27,3.63-0.73,6.63-1.36,8.98c-0.64,2.36-1.54,4.08-2.72,5.17
		c-1.18,1.09-2.77,1.63-4.76,1.63c-2,0-5.17-1.27-9.52-3.81c-4.35-2.54-9.71-5.31-16.06-8.3c-6.35-2.99-13.7-5.72-22.04-8.16
		c-8.35-2.45-17.51-3.67-27.49-3.67c-7.8,0-14.61,0.95-20.41,2.86c-5.81,1.91-10.66,4.54-14.56,7.89c-3.9,3.36-6.8,7.39-8.71,12.11
		c-1.91,4.72-2.86,9.71-2.86,14.97c0,7.8,2.13,14.56,6.4,20.27c4.26,5.72,9.98,10.8,17.15,15.24c7.17,4.45,15.28,8.62,24.36,12.52
		c9.07,3.9,18.32,8.03,27.76,12.38c9.43,4.35,18.68,9.3,27.76,14.83c9.07,5.54,17.15,12.16,24.22,19.87
		c7.08,7.71,12.79,16.78,17.15,27.21C1950.37,240.04,1952.55,252.33,1952.55,266.48z"/>
</g>
</svg>
